<svg width="422" height="391" viewBox="0 0 422 391" fill="none" xmlns="http://www.w3.org/2000/svg">
<path d="M199.4 390.05H6.30009C4.7857 390.05 3.33334 389.448 2.26251 388.378C1.19168 387.307 0.590088 385.854 0.590088 384.34V5.66C0.603273 4.15429 1.21068 2.71475 2.28008 1.65471C3.34949 0.594662 4.79432 -5.77259e-05 6.30009 4.20255e-09H199.4C200.15 4.20255e-09 200.892 0.147692 201.585 0.434647C202.278 0.721601 202.907 1.1422 203.438 1.67242C203.968 2.20264 204.388 2.83211 204.675 3.52488C204.962 4.21765 205.11 4.96015 205.11 5.71V384.34C205.11 385.09 204.962 385.832 204.675 386.525C204.388 387.218 203.968 387.847 203.438 388.378C202.907 388.908 202.278 389.328 201.585 389.615C200.892 389.902 200.15 390.05 199.4 390.05ZM6.30009 0.200001C4.85282 0.202644 3.46558 0.77874 2.4422 1.80212C1.41883 2.82549 0.842731 4.21273 0.840088 5.66V384.34C0.842731 385.787 1.41883 387.174 2.4422 388.198C3.46558 389.221 4.85282 389.797 6.30009 389.8H199.4C200.847 389.797 202.235 389.221 203.258 388.198C204.281 387.174 204.857 385.787 204.86 384.34V5.66C204.857 4.21273 204.281 2.82549 203.258 1.80212C202.235 0.77874 200.847 0.202644 199.4 0.200001H6.30009Z" fill="#EBEBEB"/>
<path d="M415.7 390.05H222.6C221.086 390.05 219.633 389.448 218.563 388.378C217.492 387.307 216.89 385.854 216.89 384.34V5.66C216.903 4.15429 217.511 2.71475 218.58 1.65471C219.65 0.594662 221.094 -5.77259e-05 222.6 4.20255e-09H415.7C417.215 4.20256e-09 418.667 0.601588 419.738 1.67242C420.809 2.74325 421.41 4.19561 421.41 5.71V384.34C421.41 385.09 421.262 385.832 420.975 386.525C420.689 387.218 420.268 387.847 419.738 388.378C419.207 388.908 418.578 389.328 417.885 389.615C417.193 389.902 416.45 390.05 415.7 390.05ZM222.6 0.200001C221.153 0.202644 219.766 0.77874 218.742 1.80212C217.719 2.82549 217.143 4.21273 217.14 5.66V384.34C217.143 385.787 217.719 387.174 218.742 388.198C219.766 389.221 221.153 389.797 222.6 389.8H415.7C417.147 389.797 418.535 389.221 419.558 388.198C420.581 387.174 421.158 385.787 421.16 384.34V5.66C421.158 4.21273 420.581 2.82549 419.558 1.80212C418.535 0.77874 417.147 0.202644 415.7 0.200001H222.6Z" fill="#EBEBEB"/>
<path d="M74.0501 113.25L75.6701 116.52L79.2901 117.05L76.6701 119.6L77.2901 123.2L74.0501 121.5L70.8201 123.2L71.4401 119.6L68.8201 117.05L72.4401 116.52L74.0501 113.25Z" fill="#EBEBEB"/>
<path d="M397.7 267.48L399.32 270.76L402.94 271.29L400.32 273.83L400.94 277.44L397.7 275.74L394.47 277.44L395.09 273.83L392.47 271.29L396.09 270.76L397.7 267.48Z" fill="#F5F5F5"/>
<path d="M333.6 362.57L335.22 365.84L338.83 366.37L336.21 368.92L336.83 372.52L333.6 370.82L330.37 372.52L330.98 368.92L328.37 366.37L331.98 365.84L333.6 362.57Z" fill="#F5F5F5"/>
<path d="M186.94 55.1497L187.54 56.3697L188.89 56.5697C188.965 56.5796 189.036 56.6107 189.095 56.6594C189.153 56.7081 189.196 56.7724 189.219 56.8448C189.242 56.9172 189.244 56.9947 189.225 57.0682C189.206 57.1416 189.166 57.2081 189.11 57.2597L188.11 58.2097L188.34 59.5497C188.352 59.6243 188.343 59.7007 188.314 59.7705C188.285 59.8403 188.238 59.9007 188.177 59.9452C188.115 59.9897 188.043 60.0164 187.968 60.0225C187.893 60.0286 187.817 60.0138 187.75 59.9797L186.55 59.3397L185.35 59.9797C185.283 60.0138 185.207 60.0286 185.132 60.0225C185.057 60.0164 184.984 59.9897 184.923 59.9452C184.862 59.9007 184.815 59.8403 184.786 59.7705C184.757 59.7007 184.748 59.6243 184.76 59.5497L184.98 58.2097L183.98 57.2597C183.924 57.2074 183.884 57.1402 183.865 57.0659C183.846 56.9917 183.849 56.9136 183.874 56.8409C183.898 56.7682 183.942 56.704 184.002 56.656C184.062 56.6079 184.134 56.578 184.21 56.5697L185.55 56.3697L186.15 55.1497C186.174 55.0634 186.226 54.9873 186.297 54.9332C186.368 54.879 186.455 54.8496 186.545 54.8496C186.635 54.8496 186.722 54.879 186.793 54.9332C186.864 54.9873 186.916 55.0634 186.94 55.1497Z" fill="#EBEBEB"/>
<path d="M21.78 347L22.38 348.21L23.72 348.41C23.7961 348.421 23.8677 348.452 23.9266 348.502C23.9856 348.551 24.0296 348.616 24.0536 348.688C24.0775 348.761 24.0805 348.84 24.0622 348.914C24.0439 348.989 24.005 349.057 23.95 349.11L22.95 350.05L23.18 351.39C23.1918 351.465 23.1828 351.541 23.1539 351.611C23.1251 351.681 23.0775 351.741 23.0165 351.786C22.9555 351.83 22.8834 351.857 22.8081 351.863C22.7328 351.869 22.6574 351.854 22.59 351.82L21.39 351.19L20.19 351.82C20.1226 351.854 20.0471 351.869 19.9719 351.863C19.8966 351.857 19.8245 351.83 19.7635 351.786C19.7024 351.741 19.6549 351.681 19.626 351.611C19.5972 351.541 19.5882 351.465 19.6 351.39L19.83 350.05L18.83 349.11C18.7751 349.057 18.7361 348.99 18.7173 348.916C18.6985 348.843 18.7006 348.765 18.7235 348.692C18.7463 348.62 18.789 348.555 18.8466 348.505C18.9043 348.455 18.9747 348.422 19.05 348.41L20.39 348.21L21 347C21.0267 346.918 21.0788 346.846 21.1489 346.795C21.219 346.744 21.3034 346.717 21.39 346.717C21.4766 346.717 21.561 346.744 21.6311 346.795C21.7011 346.846 21.7533 346.918 21.78 347Z" fill="#F5F5F5"/>
<path d="M48.7501 42.3009L49.3501 43.5209L50.7001 43.7109C50.7753 43.7229 50.8457 43.7556 50.9034 43.8054C50.9611 43.8552 51.0038 43.9201 51.0266 43.9928C51.0495 44.0655 51.0516 44.1432 51.0328 44.217C51.014 44.2908 50.9749 44.358 50.9201 44.4109L49.9201 45.4109L50.1501 46.7409C50.1661 46.8164 50.1599 46.8949 50.1322 46.9669C50.1046 47.039 50.0567 47.1015 49.9943 47.147C49.932 47.1924 49.8578 47.2189 49.7807 47.2231C49.7037 47.2274 49.6271 47.2092 49.5601 47.1709L48.3601 46.5409L47.1601 47.1709C47.0931 47.2092 47.0165 47.2274 46.9394 47.2231C46.8624 47.2189 46.7882 47.1924 46.7258 47.147C46.6635 47.1015 46.6156 47.039 46.5879 46.9669C46.5603 46.8949 46.5541 46.8164 46.5701 46.7409L46.7901 45.4109L45.7901 44.4109C45.735 44.3573 45.6962 44.2894 45.6778 44.2148C45.6595 44.1402 45.6625 44.062 45.6865 43.9891C45.7105 43.9161 45.7545 43.8514 45.8134 43.8022C45.8724 43.753 45.944 43.7214 46.0201 43.7109L47.3601 43.5209L48.0001 42.3009C48.0322 42.2282 48.0847 42.1664 48.1513 42.1231C48.2179 42.0797 48.2956 42.0566 48.3751 42.0566C48.4545 42.0566 48.5323 42.0797 48.5988 42.1231C48.6654 42.1664 48.718 42.2282 48.7501 42.3009Z" fill="#EBEBEB"/>
<path d="M47.1302 283.32C47.1322 283.583 47.0558 283.842 46.9109 284.062C46.766 284.282 46.559 284.454 46.3161 284.556C46.0733 284.658 45.8055 284.686 45.5469 284.636C45.2882 284.585 45.0503 284.46 44.8633 284.274C44.6763 284.088 44.5486 283.851 44.4965 283.593C44.4444 283.335 44.4701 283.067 44.5705 282.823C44.6709 282.58 44.8413 282.371 45.0602 282.225C45.2792 282.078 45.5367 282 45.8002 282C46.1512 282 46.488 282.139 46.7371 282.386C46.9862 282.633 47.1275 282.969 47.1302 283.32Z" fill="#EBEBEB"/>
<path d="M236.67 116.89C236.672 117.154 236.596 117.412 236.451 117.632C236.306 117.852 236.099 118.024 235.856 118.126C235.613 118.228 235.346 118.256 235.087 118.206C234.828 118.156 234.59 118.03 234.403 117.844C234.216 117.659 234.089 117.422 234.037 117.164C233.984 116.905 234.01 116.637 234.111 116.394C234.211 116.15 234.381 115.942 234.6 115.795C234.819 115.649 235.077 115.57 235.34 115.57C235.514 115.569 235.687 115.602 235.848 115.668C236.01 115.734 236.156 115.831 236.28 115.953C236.404 116.076 236.502 116.222 236.569 116.383C236.636 116.544 236.67 116.716 236.67 116.89Z" fill="#EBEBEB"/>
<path d="M167.71 43.4003C167.71 43.6634 167.632 43.9205 167.486 44.1392C167.34 44.3579 167.132 44.5284 166.889 44.6291C166.646 44.7297 166.379 44.7561 166.121 44.7048C165.863 44.6534 165.626 44.5268 165.44 44.3408C165.254 44.1548 165.127 43.9178 165.076 43.6598C165.024 43.4018 165.051 43.1344 165.151 42.8913C165.252 42.6483 165.422 42.4406 165.641 42.2945C165.86 42.1483 166.117 42.0703 166.38 42.0703C166.732 42.0729 167.069 42.2139 167.318 42.4628C167.566 42.7116 167.707 43.0484 167.71 43.4003Z" fill="#F5F5F5"/>
<path d="M169.816 367.544C173.767 366.612 176.214 362.653 175.281 358.703C174.349 354.752 170.39 352.305 166.44 353.237C162.489 354.17 160.042 358.128 160.975 362.079C161.907 366.03 165.866 368.477 169.816 367.544Z" fill="#F0F0F0"/>
<path d="M165.6 356.09C164.094 356.087 162.627 356.563 161.41 357.45C160.789 358.876 160.636 360.462 160.974 361.98C161.313 363.498 162.124 364.869 163.293 365.896C164.461 366.923 165.925 367.552 167.473 367.693C169.022 367.834 170.576 367.479 171.91 366.68C172.501 365.587 172.797 364.36 172.771 363.119C172.745 361.877 172.397 360.664 171.761 359.597C171.125 358.531 170.223 357.648 169.143 357.035C168.063 356.421 166.842 356.099 165.6 356.1V356.09Z" fill="#E6E6E6"/>
<path d="M108.68 232.64H47.8301V205.17L108.68 132.83H137.8V206.73H152.89V232.64H137.8V255.12H108.68V232.64ZM108.68 206.73V168.89L76.5201 206.73H108.68Z" fill="#48D189"/>
<path d="M163.3 194.511C163.3 171.651 167.413 155.651 175.64 146.511C183.867 137.371 196.403 132.804 213.25 132.811C221.337 132.811 227.98 133.811 233.18 135.811C237.904 137.513 242.229 140.164 245.89 143.601C248.976 146.547 251.59 149.95 253.64 153.691C255.669 157.596 257.198 161.742 258.19 166.031C260.451 175.191 261.579 184.595 261.55 194.031C261.55 215.844 257.86 231.807 250.48 241.921C243.1 252.034 230.39 257.094 212.35 257.101C202.23 257.101 194.053 255.487 187.82 252.261C181.537 248.981 176.244 244.082 172.49 238.071C169.59 233.644 167.333 227.587 165.72 219.901C164.045 211.543 163.234 203.034 163.3 194.511ZM196.44 194.591C196.44 209.924 197.79 220.381 200.49 225.961C203.19 231.541 207.113 234.344 212.26 234.371C213.893 234.389 215.514 234.083 217.028 233.47C218.542 232.857 219.919 231.95 221.08 230.801C223.573 228.421 225.407 224.661 226.58 219.521C227.753 214.381 228.34 206.381 228.34 195.521C228.34 179.561 226.987 168.831 224.28 163.331C221.573 157.831 217.513 155.084 212.1 155.091C206.58 155.091 202.58 157.894 200.1 163.501C197.62 169.107 196.4 179.471 196.44 194.591Z" fill="#48D189"/>
<path d="M332.74 232.64H271.89V205.17L332.74 132.83H361.86V206.73H377V232.64H361.86V255.12H332.74V232.64ZM332.74 206.73V168.89L300.59 206.73H332.74Z" fill="#48D189"/>
<g opacity="0.3">
<path opacity="0.3" d="M162 90.62C162 90.9903 161.89 91.3522 161.684 91.66C161.478 91.9677 161.186 92.2074 160.844 92.3486C160.501 92.4899 160.125 92.5263 159.762 92.4533C159.399 92.3804 159.066 92.2013 158.804 91.9387C158.543 91.6762 158.366 91.3421 158.295 90.9787C158.224 90.6153 158.262 90.239 158.405 89.8975C158.549 89.5559 158.79 89.2646 159.099 89.0603C159.407 88.856 159.77 88.748 160.14 88.75C160.385 88.75 160.628 88.7985 160.854 88.8926C161.081 88.9867 161.286 89.1246 161.459 89.2983C161.632 89.4721 161.769 89.6783 161.862 89.9052C161.954 90.132 162.002 90.3749 162 90.62Z" fill="#48D189"/>
<path opacity="0.3" d="M33.9701 162.451C34.6992 162.451 35.2901 161.86 35.2901 161.131C35.2901 160.402 34.6992 159.811 33.9701 159.811C33.2411 159.811 32.6501 160.402 32.6501 161.131C32.6501 161.86 33.2411 162.451 33.9701 162.451Z" fill="#48D189"/>
<path opacity="0.3" d="M252.05 355.219C253.094 355.219 253.94 354.373 253.94 353.329C253.94 352.286 253.094 351.439 252.05 351.439C251.006 351.439 250.16 352.286 250.16 353.329C250.16 354.373 251.006 355.219 252.05 355.219Z" fill="#48D189"/>
<path opacity="0.3" d="M297.5 278.32C298.229 278.32 298.82 277.729 298.82 277C298.82 276.271 298.229 275.68 297.5 275.68C296.771 275.68 296.18 276.271 296.18 277C296.18 277.729 296.771 278.32 297.5 278.32Z" fill="#48D189"/>
<path opacity="0.3" d="M385.17 40.6188C385.17 40.8799 385.093 41.1351 384.948 41.3522C384.803 41.5693 384.597 41.7384 384.355 41.8383C384.114 41.9383 383.849 41.9644 383.593 41.9135C383.337 41.8625 383.102 41.7368 382.917 41.5522C382.732 41.3676 382.607 41.1324 382.556 40.8763C382.505 40.6203 382.531 40.3549 382.631 40.1137C382.731 39.8725 382.9 39.6663 383.117 39.5213C383.334 39.3762 383.589 39.2988 383.85 39.2988C384.2 39.2988 384.536 39.4379 384.784 39.6854C385.031 39.933 385.17 40.2687 385.17 40.6188Z" fill="#48D189"/>
<path opacity="0.3" d="M133.75 13.9997C133.75 14.2608 133.673 14.516 133.528 14.733C133.383 14.9501 133.176 15.1193 132.935 15.2192C132.694 15.3191 132.429 15.3453 132.173 15.2943C131.917 15.2434 131.681 15.1177 131.497 14.9331C131.312 14.7485 131.186 14.5133 131.135 14.2572C131.085 14.0012 131.111 13.7357 131.211 13.4945C131.31 13.2533 131.48 13.0472 131.697 12.9021C131.914 12.7571 132.169 12.6797 132.43 12.6797C132.779 12.6823 133.114 12.8222 133.361 13.0692C133.608 13.3162 133.747 13.6504 133.75 13.9997Z" fill="#48D189"/>
<path opacity="0.3" d="M238.7 83.2591C239.429 83.2591 240.02 82.6682 240.02 81.9391C240.02 81.2101 239.429 80.6191 238.7 80.6191C237.971 80.6191 237.38 81.2101 237.38 81.9391C237.38 82.6682 237.971 83.2591 238.7 83.2591Z" fill="#48D189"/>
</g>
<path d="M102.23 83.2692C114.331 83.2692 124.14 73.4598 124.14 61.3592C124.14 49.2587 114.331 39.4492 102.23 39.4492C90.1295 39.4492 80.3201 49.2587 80.3201 61.3592C80.3201 73.4598 90.1295 83.2692 102.23 83.2692Z" fill="#48D189"/>
<path opacity="0.7" d="M102.23 83.2692C114.331 83.2692 124.14 73.4598 124.14 61.3592C124.14 49.2587 114.331 39.4492 102.23 39.4492C90.1295 39.4492 80.3201 49.2587 80.3201 61.3592C80.3201 73.4598 90.1295 83.2692 102.23 83.2692Z" fill="white"/>
<path opacity="0.2" d="M94.6802 44.8302C91.6963 44.821 88.7422 45.4234 86.0002 46.6002C82.6302 50.3041 80.6299 55.0502 80.3322 60.0489C80.0346 65.0476 81.4574 69.9976 84.364 74.0753C87.2706 78.1529 91.4858 81.1125 96.3082 82.4615C101.131 83.8106 106.27 83.4678 110.87 81.4902C113.722 78.3468 115.601 74.4429 116.277 70.2525C116.953 66.0622 116.398 61.7656 114.68 57.8845C112.961 54.0035 110.153 50.7049 106.595 48.3893C103.038 46.0737 98.8848 44.8408 94.6402 44.8402L94.6802 44.8302Z" fill="#48D189"/>
<path opacity="0.2" d="M92.5002 50.6191C92.5002 51.0147 92.3829 51.4014 92.1632 51.7303C91.9434 52.0592 91.6311 52.3155 91.2656 52.4669C90.9002 52.6183 90.498 52.6579 90.1101 52.5807C89.7221 52.5035 89.3657 52.3131 89.086 52.0333C88.8063 51.7536 88.6158 51.3973 88.5387 51.0093C88.4615 50.6214 88.5011 50.2192 88.6525 49.8538C88.8039 49.4883 89.0602 49.176 89.3891 48.9562C89.718 48.7364 90.1047 48.6191 90.5002 48.6191C91.0307 48.6191 91.5394 48.8299 91.9145 49.2049C92.2895 49.58 92.5002 50.0887 92.5002 50.6191Z" fill="#48D189"/>
<path opacity="0.2" d="M116.06 48.6191C116.06 49.0147 115.943 49.4014 115.723 49.7303C115.503 50.0592 115.191 50.3155 114.825 50.4669C114.46 50.6183 114.058 50.6579 113.67 50.5807C113.282 50.5035 112.926 50.3131 112.646 50.0333C112.366 49.7536 112.176 49.3973 112.098 49.0093C112.021 48.6214 112.061 48.2192 112.212 47.8538C112.364 47.4883 112.62 47.176 112.949 46.9562C113.278 46.7364 113.664 46.6191 114.06 46.6191C114.59 46.6191 115.099 46.8299 115.474 47.2049C115.849 47.58 116.06 48.0887 116.06 48.6191Z" fill="#48D189"/>
<path opacity="0.2" d="M112.06 62.8991C112.06 63.5479 111.868 64.182 111.507 64.7214C111.147 65.2608 110.635 65.6812 110.035 65.9295C109.436 66.1777 108.777 66.2427 108.14 66.1161C107.504 65.9896 106.92 65.6772 106.461 65.2184C106.002 64.7597 105.69 64.1753 105.563 63.539C105.437 62.9028 105.502 62.2433 105.75 61.6439C105.998 61.0446 106.419 60.5323 106.958 60.1719C107.497 59.8115 108.132 59.6191 108.78 59.6191C109.65 59.6191 110.484 59.9647 111.1 60.5798C111.715 61.1949 112.06 62.0292 112.06 62.8991Z" fill="#48D189"/>
<path opacity="0.2" d="M101.64 72.2491C101.64 73.1154 101.383 73.9622 100.902 74.6825C100.421 75.4028 99.7366 75.9642 98.9363 76.2957C98.1359 76.6272 97.2553 76.714 96.4056 76.545C95.556 76.376 94.7756 75.9588 94.163 75.3463C93.5504 74.7337 93.1333 73.9533 92.9643 73.1036C92.7953 72.254 92.882 71.3733 93.2135 70.573C93.5451 69.7726 94.1064 69.0886 94.8267 68.6073C95.547 68.126 96.3938 67.8691 97.2601 67.8691C98.4218 67.8691 99.5359 68.3306 100.357 69.152C101.179 69.9734 101.64 71.0875 101.64 72.2491Z" fill="#48D189"/>
<path d="M361.9 325.646C364.34 315.31 357.938 304.953 347.601 302.513C337.265 300.074 326.908 306.475 324.468 316.812C322.029 327.148 328.43 337.505 338.767 339.945C349.103 342.384 359.46 335.983 361.9 325.646Z" fill="#48D189"/>
<path opacity="0.3" d="M361.9 325.646C364.34 315.31 357.938 304.953 347.601 302.513C337.265 300.074 326.908 306.475 324.468 316.812C322.029 327.148 328.43 337.505 338.767 339.945C349.103 342.384 359.46 335.983 361.9 325.646Z" fill="white"/>
<path opacity="0.4" d="M355.33 306.339C351.067 305.053 346.49 305.286 342.38 307C338.27 308.713 334.883 311.801 332.797 315.735C330.71 319.669 330.055 324.205 330.942 328.569C331.829 332.932 334.204 336.852 337.66 339.659C339.453 340.204 341.317 340.48 343.19 340.479C347.16 340.479 351.033 339.249 354.276 336.959C357.519 334.67 359.974 331.433 361.305 327.692C362.635 323.952 362.774 319.891 361.705 316.068C360.635 312.245 358.408 308.847 355.33 306.339Z" fill="#48D189"/>
<path d="M324.83 327C304.3 336.66 319.61 344.11 348.54 333.71C375.33 324.08 385.54 311.94 361.54 315.71C362.83 320.76 329.28 333.83 324.83 327Z" fill="#48D189"/>
<path opacity="0.2" d="M355.1 132.83C328.21 151 293.4 175 283.79 232.64H281.74C291.09 175.64 324.63 151.07 351.53 132.83H355.1Z" fill="black"/>
<path d="M216 313.269C199 313.269 182.19 305.599 174 293.079C168.95 285.339 163.08 269.129 180.56 247.499L182.11 248.759C169.75 264.059 167.47 279.409 175.68 291.989C185.68 307.289 209.27 314.989 229.41 309.509C250.04 303.899 262.56 285.959 263.77 260.289C267.9 172.479 314.55 145.429 348.61 125.679C369.78 113.409 385.07 104.549 381.71 85.8387C381.24 83.2487 380.21 81.4587 378.54 80.3587C374.19 77.4887 365.69 79.4787 355.85 81.7687C336.54 86.2687 310.1 92.4287 294.35 65.6387L296.08 64.6387C311.08 90.1687 335.65 84.4387 355.4 79.8387C365.69 77.4487 374.57 75.3787 379.64 78.7087C381.79 80.1187 383.11 82.3487 383.64 85.5087C387.25 105.589 370.64 115.229 349.59 127.429C315.92 146.949 269.82 173.679 265.74 260.429C264.48 287.029 251.42 305.639 229.9 311.489C225.366 312.696 220.692 313.295 216 313.269Z" fill="#48D189"/>
<path opacity="0.2" d="M216 313.269C199 313.269 182.19 305.599 174 293.079C168.95 285.339 163.08 269.129 180.56 247.499L182.11 248.759C169.75 264.059 167.47 279.409 175.68 291.989C185.68 307.289 209.27 314.989 229.41 309.509C250.04 303.899 262.56 285.959 263.77 260.289C267.9 172.479 314.55 145.429 348.61 125.679C369.78 113.409 385.07 104.549 381.71 85.8387C381.24 83.2487 380.21 81.4587 378.54 80.3587C374.19 77.4887 365.69 79.4787 355.85 81.7687C336.54 86.2687 310.1 92.4287 294.35 65.6387L296.08 64.6387C311.08 90.1687 335.65 84.4387 355.4 79.8387C365.69 77.4487 374.57 75.3787 379.64 78.7087C381.79 80.1187 383.11 82.3487 383.64 85.5087C387.25 105.589 370.64 115.229 349.59 127.429C315.92 146.949 269.82 173.679 265.74 260.429C264.48 287.029 251.42 305.639 229.9 311.489C225.366 312.696 220.692 313.295 216 313.269Z" fill="white"/>
<path d="M273.76 42C278.368 42.0266 282.945 42.7446 287.34 44.13C287.34 44.13 298.34 62.9 299.64 67.2C299.18 71.44 292.03 78.39 292.03 78.39L273.76 42Z" fill="#48D189"/>
<path opacity="0.3" d="M273.76 42C278.368 42.0266 282.945 42.7446 287.34 44.13C287.34 44.13 298.34 62.9 299.64 67.2C299.18 71.44 292.03 78.39 292.03 78.39L273.76 42Z" fill="white"/>
<path d="M306.34 133.13C302.104 127.951 298.241 122.477 294.78 116.75C293.94 115.303 293.143 113.83 292.39 112.33C291.96 111.48 291.55 110.63 291.15 109.77C290.625 108.933 290.218 108.028 289.94 107.08C288.74 94.4102 293.08 85.0802 288.94 74.9102L272.46 81.3502C272.46 81.3502 273.86 99.4702 277.06 110.35C279.06 117.08 283.54 122.9 287.87 128.29C289.22 129.97 290.52 131.7 291.87 133.39C293.22 135.08 294.58 136.45 295.87 138.04C297.82 140.45 298.46 142.76 296.99 145.6L296.74 146.05C296.32 146.79 298.28 147.63 299.52 146.05C301.52 143.47 301.24 143.63 302.98 141.43C304.04 140.1 305.25 138.65 306.3 137.43C306.806 136.83 307.088 136.072 307.095 135.287C307.102 134.502 306.835 133.739 306.34 133.13Z" fill="#48D189"/>
<path opacity="0.7" d="M306.34 133.13C302.104 127.951 298.241 122.477 294.78 116.75C293.94 115.303 293.143 113.83 292.39 112.33C291.96 111.48 291.55 110.63 291.15 109.77C290.625 108.933 290.218 108.028 289.94 107.08C288.74 94.4102 293.08 85.0802 288.94 74.9102L272.46 81.3502C272.46 81.3502 273.86 99.4702 277.06 110.35C279.06 117.08 283.54 122.9 287.87 128.29C289.22 129.97 290.52 131.7 291.87 133.39C293.22 135.08 294.58 136.45 295.87 138.04C297.82 140.45 298.46 142.76 296.99 145.6L296.74 146.05C296.32 146.79 298.28 147.63 299.52 146.05C301.52 143.47 301.24 143.63 302.98 141.43C304.04 140.1 305.25 138.65 306.3 137.43C306.806 136.83 307.088 136.072 307.095 135.287C307.102 134.502 306.835 133.739 306.34 133.13Z" fill="white"/>
<path opacity="0.3" d="M302.31 127.92C299.695 130.723 296.792 133.244 293.65 135.44C294.08 135.92 294.5 136.44 294.93 136.9C298.076 134.775 300.933 132.25 303.43 129.39L302.31 127.92Z" fill="#48D189"/>
<path opacity="0.3" d="M306.34 133.13L306.22 132.99C305.451 133.873 305.003 134.99 304.95 136.16C304.886 136.963 305.016 137.769 305.33 138.51L306.28 137.38C306.777 136.786 307.054 136.04 307.065 135.266C307.076 134.492 306.82 133.738 306.34 133.13Z" fill="#48D189"/>
<path d="M269.84 54C268.054 56.6752 265.91 59.0941 263.47 61.19C262.117 62.3564 260.634 63.363 259.05 64.19C258.218 64.6164 257.356 64.9807 256.47 65.28L255.79 65.5L255.57 65.56L255.1 65.69C254.811 65.7587 254.517 65.8055 254.22 65.83C253.376 65.8946 252.528 65.8168 251.71 65.6C250.679 65.3073 249.69 64.8803 248.77 64.33C248.03 63.8972 247.312 63.4266 246.62 62.92C245.37 61.9901 244.174 60.9884 243.04 59.92C240.853 57.8475 238.845 55.5927 237.04 53.18C236.692 52.71 236.52 52.1334 236.552 51.5497C236.584 50.9659 236.819 50.4117 237.216 49.9826C237.613 49.5536 238.147 49.2765 238.727 49.1994C239.306 49.1222 239.895 49.2498 240.39 49.56H240.47C242.83 51.06 245.21 52.64 247.53 54.05C248.71 54.74 249.85 55.4401 250.98 55.9801C251.496 56.2501 252.027 56.4905 252.57 56.7C252.909 56.8495 253.271 56.9375 253.64 56.96C253.7 56.96 253.64 56.89 253.27 56.9C253.154 56.8931 253.037 56.8931 252.92 56.9L252.7 56.95L253.03 56.78C253.475 56.541 253.905 56.2772 254.32 55.99C255.215 55.3592 256.052 54.6497 256.82 53.87C258.567 52.0392 260.203 50.1058 261.72 48.08C262.551 47.1503 263.7 46.5647 264.94 46.438C266.181 46.3113 267.424 46.6527 268.425 47.3953C269.427 48.1379 270.115 49.228 270.355 50.4517C270.594 51.6755 270.368 52.9446 269.72 54.01L269.84 54Z" fill="#48D189"/>
<path opacity="0.7" d="M269.84 54C268.054 56.6752 265.91 59.0941 263.47 61.19C262.117 62.3564 260.634 63.363 259.05 64.19C258.218 64.6164 257.356 64.9807 256.47 65.28L255.79 65.5L255.57 65.56L255.1 65.69C254.811 65.7587 254.517 65.8055 254.22 65.83C253.376 65.8946 252.528 65.8168 251.71 65.6C250.679 65.3073 249.69 64.8803 248.77 64.33C248.03 63.8972 247.312 63.4266 246.62 62.92C245.37 61.9901 244.174 60.9884 243.04 59.92C240.853 57.8475 238.845 55.5927 237.04 53.18C236.692 52.71 236.52 52.1334 236.552 51.5497C236.584 50.9659 236.819 50.4117 237.216 49.9826C237.613 49.5536 238.147 49.2765 238.727 49.1994C239.306 49.1222 239.895 49.2498 240.39 49.56H240.47C242.83 51.06 245.21 52.64 247.53 54.05C248.71 54.74 249.85 55.4401 250.98 55.9801C251.496 56.2501 252.027 56.4905 252.57 56.7C252.909 56.8495 253.271 56.9375 253.64 56.96C253.7 56.96 253.64 56.89 253.27 56.9C253.154 56.8931 253.037 56.8931 252.92 56.9L252.7 56.95L253.03 56.78C253.475 56.541 253.905 56.2772 254.32 55.99C255.215 55.3592 256.052 54.6497 256.82 53.87C258.567 52.0392 260.203 50.1058 261.72 48.08C262.551 47.1503 263.7 46.5647 264.94 46.438C266.181 46.3113 267.424 46.6527 268.425 47.3953C269.427 48.1379 270.115 49.228 270.355 50.4517C270.594 51.6755 270.368 52.9446 269.72 54.01L269.84 54Z" fill="white"/>
<path d="M233.29 47.4186L234.46 49.4186C234.46 49.4186 235.35 52.0386 237.14 52.5186L242 50.9486L241.75 50.5386C241.13 49.5986 241.2 47.7686 241.41 46.2486C241.62 44.7286 240.84 44.6786 240.26 45.0586C239.849 45.5314 239.561 46.0981 239.42 46.7086C239.182 46.3784 238.917 46.0674 238.63 45.7786L237.15 44.2986C236.84 43.9951 236.426 43.8203 235.992 43.8092C235.558 43.798 235.136 43.9514 234.81 44.2386L233.61 45.3086C233.325 45.5719 233.139 45.9242 233.081 46.3076C233.022 46.691 233.096 47.0827 233.29 47.4186Z" fill="#48D189"/>
<path opacity="0.7" d="M233.29 47.4186L234.46 49.4186C234.46 49.4186 235.35 52.0386 237.14 52.5186L242 50.9486L241.75 50.5386C241.13 49.5986 241.2 47.7686 241.41 46.2486C241.62 44.7286 240.84 44.6786 240.26 45.0586C239.849 45.5314 239.561 46.0981 239.42 46.7086C239.182 46.3784 238.917 46.0674 238.63 45.7786L237.15 44.2986C236.84 43.9951 236.426 43.8203 235.992 43.8092C235.558 43.798 235.136 43.9514 234.81 44.2386L233.61 45.3086C233.325 45.5719 233.139 45.9242 233.081 46.3076C233.022 46.691 233.096 47.0827 233.29 47.4186Z" fill="white"/>
<path d="M278.67 40.2185C273.279 41.6473 268.116 43.8252 263.33 46.6885C262.583 47.1558 261.998 47.8401 261.651 48.6497C261.304 49.4594 261.213 50.3557 261.39 51.2185C263.32 60.6585 267.71 73.2985 272.45 81.3485L294.56 72.1985C294.71 68.2985 289.34 55.6785 283.87 43.4785C282.89 41.2885 281 39.6585 278.67 40.2185Z" fill="#48D189"/>
<path opacity="0.8" d="M278.67 40.2185C273.279 41.6473 268.116 43.8252 263.33 46.6885C262.583 47.1558 261.998 47.8401 261.651 48.6497C261.304 49.4594 261.213 50.3557 261.39 51.2185C263.32 60.6585 267.71 73.2985 272.45 81.3485L294.56 72.1985C294.71 68.2985 289.34 55.6785 283.87 43.4785C282.89 41.2885 281 39.6585 278.67 40.2185Z" fill="white"/>
<path opacity="0.3" d="M287.3 51.2102L282.91 49.7402C283.91 52.3102 287.44 55.5602 289.91 57.4702C289.11 55.4702 288.22 53.3702 287.3 51.2102Z" fill="#48D189"/>
<path d="M277.22 30.3194C275.39 26.8394 271.44 25.0894 266.7 25.4794C262.7 25.8194 259.16 29.8994 259.58 32.0994C260 34.2994 263.36 35.2394 264 35.9994L261.23 37.9994C260.902 38.2362 260.625 38.537 260.416 38.8837C260.207 39.2303 260.071 39.6156 260.015 40.0164C259.959 40.4172 259.984 40.8252 260.09 41.2158C260.196 41.6064 260.38 41.9716 260.63 42.2894C261.8 43.7694 263.34 45.2894 264.23 46.4094C271.89 46.2094 277.56 43.2894 279.61 40.4794C278.84 36.9194 279 33.7794 277.22 30.3194Z" fill="#48D189"/>
<path opacity="0.8" d="M277.22 30.3194C275.39 26.8394 271.44 25.0894 266.7 25.4794C262.7 25.8194 259.16 29.8994 259.58 32.0994C260 34.2994 263.36 35.2394 264 35.9994L261.23 37.9994C260.902 38.2362 260.625 38.537 260.416 38.8837C260.207 39.2303 260.071 39.6156 260.015 40.0164C259.959 40.4172 259.984 40.8252 260.09 41.2158C260.196 41.6064 260.38 41.9716 260.63 42.2894C261.8 43.7694 263.34 45.2894 264.23 46.4094C271.89 46.2094 277.56 43.2894 279.61 40.4794C278.84 36.9194 279 33.7794 277.22 30.3194Z" fill="white"/>
<path d="M273.46 32.4791C274.004 33.8737 274.122 35.3983 273.8 36.86C273.477 38.3217 272.729 39.655 271.648 40.6914C270.568 41.7278 269.205 42.4206 267.731 42.6825C266.258 42.9443 264.739 42.7633 263.368 42.1624C261.997 41.5614 260.835 40.5675 260.029 39.3063C259.223 38.0451 258.809 36.5732 258.839 35.0766C258.869 33.58 259.342 32.126 260.199 30.8983C261.055 29.6706 262.256 28.7243 263.65 28.1791C265.521 27.4502 267.606 27.4935 269.445 28.2997C271.284 29.106 272.728 30.6091 273.46 32.4791Z" fill="#263238"/>
<path d="M338.39 122.599C338.28 119.309 338.13 119.599 338.04 116.829C337.98 115.129 337.97 113.239 337.96 111.609C337.957 110.835 337.686 110.086 337.194 109.488C336.702 108.891 336.019 108.481 335.26 108.329C333.94 108.059 332.61 107.809 331.26 107.529C329.53 107.159 327.82 106.759 326.13 106.269C324.81 105.889 323.51 105.469 322.22 104.999C320.93 104.529 319.48 103.999 318.14 103.379C316.56 102.709 315 101.989 313.46 101.239C311.73 100.419 310.02 99.5592 308.31 98.6892C301.73 87.7992 301.59 80.6192 294.53 72.1992L279.37 79.0592C279.37 79.0592 290.51 98.8192 298.09 107.199C302.46 112.019 309.31 114.199 315.42 115.779C319.83 116.909 324.3 117.779 328.77 118.609C330.51 118.929 332.4 119.049 333.9 120.089C335.01 120.94 335.771 122.167 336.04 123.539C336.107 123.819 336.167 124.099 336.22 124.379C336.41 125.219 338.46 124.579 338.39 122.599Z" fill="#48D189"/>
<path opacity="0.8" d="M338.39 122.599C338.28 119.309 338.13 119.599 338.04 116.829C337.98 115.129 337.97 113.239 337.96 111.609C337.957 110.835 337.686 110.086 337.194 109.488C336.702 108.891 336.019 108.481 335.26 108.329C333.94 108.059 332.61 107.809 331.26 107.529C329.53 107.159 327.82 106.759 326.13 106.269C324.81 105.889 323.51 105.469 322.22 104.999C320.93 104.529 319.48 103.999 318.14 103.379C316.56 102.709 315 101.989 313.46 101.239C311.73 100.419 310.02 99.5592 308.31 98.6892C301.73 87.7992 301.59 80.6192 294.53 72.1992L279.37 79.0592C279.37 79.0592 290.51 98.8192 298.09 107.199C302.46 112.019 309.31 114.199 315.42 115.779C319.83 116.909 324.3 117.779 328.77 118.609C330.51 118.929 332.4 119.049 333.9 120.089C335.01 120.94 335.771 122.167 336.04 123.539C336.107 123.819 336.167 124.099 336.22 124.379C336.41 125.219 338.46 124.579 338.39 122.599Z" fill="white"/>
<path opacity="0.3" d="M330.7 107.4C330.1 107.27 329.5 107.14 328.89 106.99C328.94 110.45 327.32 116.41 326.73 118.22L328.63 118.58C329.875 114.978 330.573 111.209 330.7 107.4Z" fill="#48D189"/>
<path opacity="0.3" d="M338 111.609C337.997 110.836 337.728 110.088 337.238 109.491C336.748 108.893 336.067 108.483 335.31 108.329L334.31 108.139C334.471 109.275 335.052 110.31 335.94 111.039C336.511 111.566 337.195 111.956 337.94 112.179C338 111.999 338 111.799 338 111.609Z" fill="#48D189"/>
<path d="M272.05 32.5394C272.45 34.0594 270.75 35.6493 269.4 34.3393C268.14 32.9884 266.761 31.7534 265.28 30.6494C263.89 29.7794 265.74 28.2593 267.93 28.8493C268.865 29.0841 269.728 29.5427 270.446 30.1856C271.164 30.8284 271.714 31.6362 272.05 32.5394Z" fill="white"/>
<path d="M272.16 80.8595C271.46 81.1195 272.74 82.3195 272.74 82.3195C272.74 82.3195 286.74 77.5295 295.24 72.5995C295.261 72.3011 295.21 72.002 295.091 71.7272C294.973 71.4524 294.791 71.2098 294.56 71.0195C287.285 74.7201 279.807 78.0054 272.16 80.8595Z" fill="#48D189"/>
<path opacity="0.5" d="M272.16 80.8595C271.46 81.1195 272.74 82.3195 272.74 82.3195C272.74 82.3195 286.74 77.5295 295.24 72.5995C295.261 72.3011 295.21 72.002 295.091 71.7272C294.973 71.4524 294.791 71.2098 294.56 71.0195C287.285 74.7201 279.807 78.0054 272.16 80.8595Z" fill="white"/>
<path d="M282.46 39.5599C285.22 40.9599 287.81 42.4299 290.46 44.0599C291.75 44.8799 293.03 45.7099 294.3 46.6099C295.57 47.5099 296.83 48.4299 298.1 49.4699L298.57 49.8599L299.16 50.3999C299.512 50.7144 299.846 51.0483 300.16 51.3999C300.48 51.7499 300.75 52.0899 301.01 52.3999C301.27 52.7099 301.55 53.0799 301.78 53.3999C302.712 54.6855 303.573 56.0208 304.36 57.3999C305.91 60.0742 307.247 62.8661 308.36 65.7499C308.566 66.2947 308.576 66.894 308.39 67.4458C308.204 67.9976 307.832 68.4679 307.339 68.7766C306.845 69.0854 306.259 69.2136 305.682 69.1395C305.104 69.0653 304.57 68.7934 304.17 68.3699L304.12 68.3099C302.12 66.1799 300.19 63.9399 298.25 61.8499C296.31 59.7599 294.34 57.6399 292.71 56.7099C290.44 55.2999 287.91 53.8899 285.4 52.5099L277.84 48.3099C276.668 47.6893 275.79 46.6284 275.4 45.3607C275.01 44.0929 275.14 42.7221 275.76 41.5499C276.381 40.3776 277.442 39.4999 278.709 39.1098C279.977 38.7198 281.348 38.8493 282.52 39.4699L282.46 39.5599Z" fill="#48D189"/>
<path opacity="0.8" d="M282.46 39.5599C285.22 40.9599 287.81 42.4299 290.46 44.0599C291.75 44.8799 293.03 45.7099 294.3 46.6099C295.57 47.5099 296.83 48.4299 298.1 49.4699L298.57 49.8599L299.16 50.3999C299.512 50.7144 299.846 51.0483 300.16 51.3999C300.48 51.7499 300.75 52.0899 301.01 52.3999C301.27 52.7099 301.55 53.0799 301.78 53.3999C302.712 54.6855 303.573 56.0208 304.36 57.3999C305.91 60.0742 307.247 62.8661 308.36 65.7499C308.566 66.2947 308.576 66.894 308.39 67.4458C308.204 67.9976 307.832 68.4679 307.339 68.7766C306.845 69.0854 306.259 69.2136 305.682 69.1395C305.104 69.0653 304.57 68.7934 304.17 68.3699L304.12 68.3099C302.12 66.1799 300.19 63.9399 298.25 61.8499C296.31 59.7599 294.34 57.6399 292.71 56.7099C290.44 55.2999 287.91 53.8899 285.4 52.5099L277.84 48.3099C276.668 47.6893 275.79 46.6284 275.4 45.3607C275.01 44.0929 275.14 42.7221 275.76 41.5499C276.381 40.3776 277.442 39.4999 278.709 39.1098C279.977 38.7198 281.348 38.8493 282.52 39.4699L282.46 39.5599Z" fill="white"/>
<path d="M310.73 70.7389L309.88 68.6089C309.88 68.6089 309.41 65.8889 307.72 65.1289L302.72 65.9189L302.89 66.3589C303.35 67.3589 303 69.1889 302.55 70.6489C302.1 72.1089 302.86 72.2989 303.5 72.0089C303.86 71.8489 304.21 71.1989 304.59 70.5089C304.776 70.8565 304.987 71.1907 305.22 71.5089L306.45 73.1989C306.707 73.5491 307.087 73.7891 307.514 73.8708C307.94 73.9524 308.382 73.8695 308.75 73.6389L310.11 72.7689C310.428 72.5511 310.663 72.2315 310.776 71.8626C310.888 71.4937 310.872 71.0974 310.73 70.7389Z" fill="#48D189"/>
<path opacity="0.8" d="M310.73 70.7389L309.88 68.6089C309.88 68.6089 309.41 65.8889 307.72 65.1289L302.72 65.9189L302.89 66.3589C303.35 67.3589 303 69.1889 302.55 70.6489C302.1 72.1089 302.86 72.2989 303.5 72.0089C303.86 71.8489 304.21 71.1989 304.59 70.5089C304.776 70.8565 304.987 71.1907 305.22 71.5089L306.45 73.1989C306.707 73.5491 307.087 73.7891 307.514 73.8708C307.94 73.9524 308.382 73.8695 308.75 73.6389L310.11 72.7689C310.428 72.5511 310.663 72.2315 310.776 71.8626C310.888 71.4937 310.872 71.0974 310.73 70.7389Z" fill="white"/>
<path opacity="0.3" d="M278.24 51.0586L277.02 51.1586L269.53 69.2386C269.939 69.2681 270.351 69.2343 270.75 69.1386C270.75 69.1386 280.51 65.4986 283.46 64.1386C281.48 60.0486 278.24 51.0586 278.24 51.0586Z" fill="#48D189"/>
<path d="M264.57 55.8002C265.48 60.5264 267.17 65.0683 269.57 69.2402C273.23 67.9802 279.33 65.6002 282.29 64.2402C280.301 59.9751 278.535 55.6092 277 51.1602C273.87 51.3702 267 54.0002 264.57 55.8002Z" fill="white"/>
<path opacity="0.3" d="M272 59.7096C271.854 60.1986 271.566 60.6333 271.173 60.9586C270.779 61.2839 270.298 61.4853 269.791 61.5372C269.283 61.5892 268.771 61.4893 268.32 61.2503C267.869 61.0113 267.499 60.644 267.257 60.1946C267.015 59.7453 266.911 59.2343 266.96 58.7262C267.008 58.2181 267.206 57.7357 267.529 57.3402C267.851 56.9446 268.284 56.6536 268.772 56.504C269.26 56.3543 269.781 56.3528 270.27 56.4996C270.925 56.6962 271.475 57.1447 271.799 57.7466C272.124 58.3485 272.196 59.0545 272 59.7096Z" fill="#48D189"/>
<path opacity="0.6" d="M273.91 56.2698C273.871 56.4367 273.783 56.588 273.656 56.7037C273.53 56.8194 273.371 56.8942 273.202 56.9182C273.032 56.9422 272.859 56.9143 272.705 56.8383C272.552 56.7622 272.425 56.6414 272.341 56.4919C272.257 56.3423 272.22 56.1709 272.236 56.0002C272.251 55.8295 272.318 55.6674 272.427 55.5353C272.536 55.4031 272.683 55.307 272.848 55.2597C273.012 55.2123 273.187 55.2158 273.35 55.2698C273.553 55.3346 273.723 55.4739 273.827 55.6595C273.931 55.8451 273.961 56.0632 273.91 56.2698Z" fill="#48D189"/>
<path opacity="0.6" d="M276.15 55.3993C276.127 55.5153 276.079 55.6252 276.011 55.7218C275.943 55.8184 275.855 55.8996 275.753 55.9604C275.652 56.0211 275.538 56.0599 275.421 56.0744C275.303 56.0888 275.184 56.0786 275.071 56.0443C274.958 56.0101 274.853 55.9525 274.763 55.8754C274.673 55.7982 274.601 55.7032 274.55 55.5964C274.499 55.4895 274.471 55.3732 274.467 55.2549C274.464 55.1366 274.485 55.0189 274.53 54.9093C274.562 54.8035 274.615 54.705 274.685 54.6196C274.755 54.5341 274.841 54.4634 274.939 54.4113C275.036 54.3593 275.143 54.327 275.253 54.3164C275.363 54.3058 275.474 54.3169 275.58 54.3493C275.794 54.4142 275.974 54.5607 276.081 54.7573C276.187 54.9538 276.212 55.1845 276.15 55.3993Z" fill="#48D189"/>
<path opacity="0.5" d="M279.29 63.1891L270.04 66.8391L269.49 65.0191L278.73 61.3691L279.29 63.1891Z" fill="#48D189"/>
<path opacity="0.2" d="M228.26 202.171C228.239 207.994 227.676 213.803 226.58 219.521C225.4 224.661 223.567 228.421 221.08 230.801C219.922 231.951 218.546 232.859 217.034 233.472C215.521 234.085 213.902 234.391 212.27 234.371C207.13 234.371 203.207 231.568 200.5 225.961C200.024 224.954 199.62 223.915 199.29 222.851C193.574 227.761 188.251 233.111 183.37 238.851L178.06 245.111C180.918 248.008 184.215 250.434 187.83 252.301C194.057 255.521 202.23 257.135 212.35 257.141C214.13 257.141 215.85 257.091 217.52 256.991C223.643 247.932 228.709 238.202 232.62 227.991L247.47 189.271L228.26 202.171Z" fill="black"/>
<path d="M94.3901 255.001L111.89 272.501L160.89 226.331C144 219.881 111.16 238.191 94.3901 255.001Z" fill="#263238"/>
<path d="M155.42 316C149.83 310.4 137.92 298.5 137.92 298.5L184.09 249.5C190.5 266.35 172.19 299.22 155.42 316Z" fill="#263238"/>
<path d="M222.4 205.701L241.49 168.891L204.68 188.001C192.856 194.133 181.939 201.873 172.24 211.001L109.49 270.071L140.32 300.901L199.39 238.151C208.522 228.449 216.266 217.528 222.4 205.701Z" fill="#48D189"/>
<path opacity="0.6" d="M222.4 205.701L241.49 168.891L204.68 188.001C192.856 194.133 181.939 201.873 172.24 211.001L109.49 270.071L140.32 300.901L199.39 238.151C208.522 228.449 216.266 217.528 222.4 205.701Z" fill="white"/>
<path d="M183.2 240.081C190.325 240.081 196.1 234.306 196.1 227.181C196.1 220.057 190.325 214.281 183.2 214.281C176.076 214.281 170.3 220.057 170.3 227.181C170.3 234.306 176.076 240.081 183.2 240.081Z" fill="white"/>
<path d="M183.2 235.471C187.778 235.471 191.49 231.759 191.49 227.181C191.49 222.602 187.778 218.891 183.2 218.891C178.621 218.891 174.91 222.602 174.91 227.181C174.91 231.759 178.621 235.471 183.2 235.471Z" fill="#48D189"/>
<path opacity="0.3" d="M150.75 289.821L120.56 259.631L145.28 236.371L174.01 265.111L150.75 289.821Z" fill="#48D189"/>
<path d="M101.22 282.621C78.62 284.451 71.13 298.921 68.57 318.151C67.27 327.961 66.69 337.891 58.46 343.631C57.9649 343.968 57.5921 344.455 57.3975 345.022C57.2029 345.588 57.1969 346.202 57.3805 346.771C57.564 347.341 57.9273 347.836 58.4157 348.182C58.9042 348.528 59.4916 348.707 60.09 348.691C90.43 347.741 104.58 332.891 106.36 326.691C105.893 329.932 105.057 333.109 103.87 336.161C103.652 336.7 103.609 337.293 103.748 337.857C103.887 338.422 104.2 338.928 104.643 339.303C105.087 339.679 105.637 339.905 106.217 339.95C106.796 339.994 107.375 339.855 107.87 339.551C116.38 334.221 127.06 324.401 127.77 308.471C121.51 299.601 101.22 282.621 101.22 282.621Z" fill="#48D189"/>
<path opacity="0.2" d="M101.22 282.621C78.62 284.451 71.13 298.921 68.57 318.151C67.27 327.961 66.69 337.891 58.46 343.631C57.9649 343.968 57.5921 344.455 57.3975 345.022C57.2029 345.588 57.1969 346.202 57.3805 346.771C57.564 347.341 57.9273 347.836 58.4157 348.182C58.9042 348.528 59.4916 348.707 60.09 348.691C90.43 347.741 104.58 332.891 106.36 326.691C105.893 329.932 105.057 333.109 103.87 336.161C103.652 336.7 103.609 337.293 103.748 337.857C103.887 338.422 104.2 338.928 104.643 339.303C105.087 339.679 105.637 339.905 106.217 339.95C106.796 339.994 107.375 339.855 107.87 339.551C116.38 334.221 127.06 324.401 127.77 308.471C121.51 299.601 101.22 282.621 101.22 282.621Z" fill="white"/>
<path d="M131.28 315.3L95.0801 279.1L114.36 274.93L135.45 296.02L131.28 315.3Z" fill="#48D189"/>
</svg>
