<svg width="15" height="19" viewBox="0 0 15 19" fill="none" xmlns="http://www.w3.org/2000/svg">
<path fill-rule="evenodd" clip-rule="evenodd" d="M14.3246 7.62662C14.6077 5.731 13.1644 4.71196 11.1909 4.03215L11.8311 1.4643L10.2676 1.07475L9.64432 3.57494C9.23385 3.47255 8.81181 3.37594 8.39244 3.28023L9.02016 0.763565L7.45799 0.374023L6.81736 2.94099C6.47723 2.86353 6.14334 2.78696 5.81924 2.70638L5.82102 2.69836L3.66541 2.16013L3.2496 3.82959C3.2496 3.82959 4.40932 4.09537 4.38484 4.11184C5.0179 4.26989 5.13276 4.68881 5.11317 5.02092L4.38395 7.94627C4.42757 7.9574 4.48411 7.97343 4.54644 7.99836L4.38172 7.9574L3.35912 12.0554C3.28165 12.2477 3.08533 12.5362 2.64281 12.4267C2.65839 12.4494 1.50668 12.1431 1.50668 12.1431L0.730713 13.9327L2.76523 14.4398C2.99491 14.4974 3.22179 14.5566 3.44618 14.6151C3.59151 14.653 3.73578 14.6907 3.8791 14.7274L3.23224 17.3251L4.79352 17.7146L5.4346 15.145C5.86064 15.2607 6.27467 15.3676 6.67979 15.4682L6.04139 18.0258L7.60445 18.4154L8.25132 15.823C10.9167 16.3274 12.9214 16.124 13.7641 13.7137C14.4439 11.7727 13.7307 10.653 12.3284 9.92247C13.3496 9.68607 14.1189 9.01428 14.3242 7.62662H14.3246ZM10.7528 12.6346C10.3091 14.4161 7.52 13.6789 6.245 13.342C6.13082 13.3118 6.02879 13.2848 5.94167 13.2632L6.8 9.8223C6.90648 9.84888 7.03658 9.87807 7.18396 9.91115C8.503 10.2071 11.2062 10.8137 10.7533 12.6346H10.7528ZM7.44909 8.31444C8.51296 8.59826 10.8319 9.21692 11.2359 7.59857C11.6489 5.94294 9.39395 5.44393 8.29266 5.20022C8.16886 5.17282 8.05963 5.14865 7.97042 5.12642L7.19222 8.24721C7.26586 8.26556 7.35228 8.28861 7.44909 8.31444Z" fill="#F7931A"/>
</svg>
