<svg width="24" height="25" viewBox="0 0 24 25" fill="none" xmlns="http://www.w3.org/2000/svg">
<path d="M7 6.51758V3.51758C7 3.25236 7.10536 2.99801 7.29289 2.81047C7.48043 2.62293 7.73478 2.51758 8 2.51758H20C20.2652 2.51758 20.5196 2.62293 20.7071 2.81047C20.8946 2.99801 21 3.25236 21 3.51758V17.5176C21 17.7828 20.8946 18.0371 20.7071 18.2247C20.5196 18.4122 20.2652 18.5176 20 18.5176H17V21.5176C17 22.0696 16.55 22.5176 15.993 22.5176H4.007C3.87513 22.5184 3.7444 22.4931 3.62232 22.4432C3.50025 22.3933 3.38923 22.3198 3.29566 22.2269C3.20208 22.134 3.12779 22.0235 3.07705 21.9017C3.02632 21.78 3.00013 21.6495 3 21.5176L3.003 7.51758C3.003 6.96558 3.453 6.51758 4.01 6.51758H7ZM9 6.51758H17V16.5176H19V4.51758H9V6.51758Z" fill="#909198"/>
</svg>
