<svg width="42" height="42" viewBox="0 0 42 42" fill="none" xmlns="http://www.w3.org/2000/svg">
<circle cx="21" cy="21" r="21" fill="#48D189" fill-opacity="0.08"/>
<path d="M29 31H13V29C13 27.6739 13.5268 26.4021 14.4645 25.4645C15.4021 24.5268 16.6739 24 18 24H24C25.3261 24 26.5979 24.5268 27.5355 25.4645C28.4732 26.4021 29 27.6739 29 29V31ZM21 22C20.2121 22 19.4319 21.8448 18.7039 21.5433C17.9759 21.2417 17.3145 20.7998 16.7574 20.2426C16.2002 19.6855 15.7583 19.0241 15.4567 18.2961C15.1552 17.5681 15 16.7879 15 16C15 15.2121 15.1552 14.4319 15.4567 13.7039C15.7583 12.9759 16.2002 12.3145 16.7574 11.7574C17.3145 11.2002 17.9759 10.7583 18.7039 10.4567C19.4319 10.1552 20.2121 10 21 10C22.5913 10 24.1174 10.6321 25.2426 11.7574C26.3679 12.8826 27 14.4087 27 16C27 17.5913 26.3679 19.1174 25.2426 20.2426C24.1174 21.3679 22.5913 22 21 22Z" fill="#48D189"/>
</svg>
