<svg width="51" height="50" viewBox="0 0 51 50" fill="none" xmlns="http://www.w3.org/2000/svg">
<path d="M35.9165 12.5001H46.3332V16.6667H42.1665V43.7501C42.1665 44.3026 41.947 44.8325 41.5563 45.2232C41.1656 45.6139 40.6357 45.8334 40.0832 45.8334H10.9165C10.364 45.8334 9.83407 45.6139 9.44337 45.2232C9.05266 44.8325 8.83317 44.3026 8.83317 43.7501V16.6667H4.6665V12.5001H15.0832V6.25008C15.0832 5.69755 15.3027 5.16764 15.6934 4.77694C16.0841 4.38624 16.614 4.16675 17.1665 4.16675H33.8332C34.3857 4.16675 34.9156 4.38624 35.3063 4.77694C35.697 5.16764 35.9165 5.69755 35.9165 6.25008V12.5001ZM19.2498 22.9167V35.4167H23.4165V22.9167H19.2498ZM27.5832 22.9167V35.4167H31.7498V22.9167H27.5832ZM19.2498 8.33342V12.5001H31.7498V8.33342H19.2498Z" fill="#EB5757"/>
</svg>
