<svg width="420" height="280" viewBox="0 0 420 280" fill="none" xmlns="http://www.w3.org/2000/svg">
<path d="M346.047 136.99C346.047 136.99 366.583 139.023 376.985 151.755C376.985 151.755 387.988 137.008 407.735 137.312C412.56 131.49 415.633 124.417 416.595 116.917C417.557 109.416 416.369 101.797 413.168 94.9456C409.968 88.0944 404.887 82.2932 398.517 78.2175C392.148 74.1419 384.752 71.9594 377.19 71.9243C369.628 71.8891 362.212 74.0027 355.804 78.019C349.397 82.0353 344.263 87.789 340.999 94.6103C337.735 101.431 336.475 109.04 337.368 116.549C338.26 124.058 341.267 131.159 346.038 137.025L346.047 136.99Z" fill="#48D189"/>
<path opacity="0.5" d="M346.047 136.99C346.047 136.99 366.583 139.023 376.985 151.755C376.985 151.755 387.988 137.008 407.735 137.312C412.56 131.49 415.633 124.417 416.595 116.917C417.557 109.416 416.369 101.797 413.168 94.9456C409.968 88.0944 404.887 82.2932 398.517 78.2175C392.148 74.1419 384.752 71.9594 377.19 71.9243C369.628 71.8891 362.212 74.0027 355.804 78.019C349.397 82.0353 344.263 87.789 340.999 94.6103C337.735 101.431 336.475 109.04 337.368 116.549C338.26 124.058 341.267 131.159 346.038 137.025L346.047 136.99Z" fill="white"/>
<path d="M376.295 74.7383L375.605 207.825H379.073L376.295 74.7383Z" fill="#B8B8B8"/>
<path d="M377.343 147.876C377.343 147.876 384.269 135.395 396.75 131.578C396.75 131.578 383.579 134.705 377.039 145.448L377.343 147.876Z" fill="#B8B8B8"/>
<path d="M377.343 112.522C377.343 112.522 384.269 100.041 396.75 96.2246C396.75 96.2246 383.579 99.3426 377.039 110.094L377.343 112.522Z" fill="#B8B8B8"/>
<path d="M377.343 130.182C377.343 130.182 384.269 117.702 396.75 113.885C396.75 113.885 383.579 117.012 377.039 127.754L377.343 130.182Z" fill="#B8B8B8"/>
<path d="M376.313 121.527C376.313 121.527 369.62 109.055 357.578 105.238C357.578 105.238 370.292 108.356 376.645 119.108L376.313 121.527Z" fill="#B8B8B8"/>
<path d="M376.313 138.865C376.313 138.865 369.62 126.384 357.578 122.576C357.578 122.576 370.292 125.694 376.645 136.437L376.313 138.865Z" fill="#B8B8B8"/>
<path d="M9.94344 136.99C9.94344 136.99 30.479 139.023 40.8812 151.755C40.8812 151.755 51.8836 137.008 71.6307 137.312C76.4566 131.49 79.5294 124.417 80.4913 116.917C81.4533 109.416 80.2649 101.797 77.0644 94.9456C73.864 88.0944 68.7831 82.2932 62.4135 78.2175C56.0439 74.1419 48.6477 71.9594 41.0858 71.9243C33.524 71.8891 26.1077 74.0027 19.7005 78.019C13.2933 82.0353 8.15879 87.789 4.89479 94.6103C1.63079 101.431 0.371599 109.04 1.26382 116.549C2.15603 124.058 5.16296 131.159 9.93448 137.025L9.94344 136.99Z" fill="#48D189"/>
<path opacity="0.5" d="M9.94344 136.99C9.94344 136.99 30.479 139.023 40.8812 151.755C40.8812 151.755 51.8836 137.008 71.6307 137.312C76.4566 131.49 79.5294 124.417 80.4913 116.917C81.4533 109.416 80.2649 101.797 77.0644 94.9456C73.864 88.0944 68.7831 82.2932 62.4135 78.2175C56.0439 74.1419 48.6477 71.9594 41.0858 71.9243C33.524 71.8891 26.1077 74.0027 19.7005 78.019C13.2933 82.0353 8.15879 87.789 4.89479 94.6103C1.63079 101.431 0.371599 109.04 1.26382 116.549C2.15603 124.058 5.16296 131.159 9.93448 137.025L9.94344 136.99Z" fill="white"/>
<path d="M40.2092 74.7383L39.5104 207.825H42.9778L40.2092 74.7383Z" fill="#B8B8B8"/>
<path d="M41.2485 147.876C41.2485 147.876 48.1743 135.395 60.6551 131.578C60.6551 131.578 47.4844 134.705 40.9438 145.448L41.2485 147.876Z" fill="#B8B8B8"/>
<path d="M41.2485 112.522C41.2485 112.522 48.1743 100.041 60.6551 96.2246C60.6551 96.2246 47.4844 99.3426 40.9438 110.094L41.2485 112.522Z" fill="#B8B8B8"/>
<path d="M41.2485 130.182C41.2485 130.182 48.1743 117.702 60.6551 113.885C60.6551 113.885 47.4844 117.012 40.9438 127.754L41.2485 130.182Z" fill="#B8B8B8"/>
<path d="M40.2182 121.527C40.2182 121.527 33.5253 109.055 21.4835 105.238C21.4835 105.238 34.1973 108.356 40.5497 119.108L40.2182 121.527Z" fill="#B8B8B8"/>
<path d="M40.2182 138.865C40.2182 138.865 33.5253 126.384 21.4835 122.576C21.4835 122.576 34.1973 125.694 40.5497 136.437L40.2182 138.865Z" fill="#B8B8B8"/>
<path d="M262.606 149.894C262.606 149.894 279.414 151.552 287.926 161.972C287.926 161.972 296.931 149.903 313.094 150.145C317.042 145.379 319.555 139.59 320.34 133.452C321.126 127.314 320.151 121.078 317.531 115.472C314.91 109.866 310.751 105.12 305.537 101.785C300.324 98.4512 294.271 96.6664 288.082 96.639C281.894 96.6115 275.825 98.3425 270.582 101.63C265.339 104.918 261.138 109.627 258.468 115.21C255.798 120.793 254.768 127.019 255.499 133.164C256.23 139.31 258.692 145.121 262.597 149.921L262.606 149.894Z" fill="#48D189"/>
<path opacity="0.5" d="M262.606 149.894C262.606 149.894 279.414 151.552 287.926 161.972C287.926 161.972 296.931 149.903 313.094 150.145C317.042 145.379 319.555 139.59 320.34 133.452C321.126 127.314 320.151 121.078 317.531 115.472C314.91 109.866 310.751 105.12 305.537 101.785C300.324 98.4512 294.271 96.6664 288.082 96.639C281.894 96.6115 275.825 98.3425 270.582 101.63C265.339 104.918 261.138 109.627 258.468 115.21C255.798 120.793 254.768 127.019 255.499 133.164C256.23 139.31 258.692 145.121 262.597 149.921L262.606 149.894Z" fill="white"/>
<path d="M287.37 98.8945L286.806 207.826H289.646L287.37 98.8945Z" fill="#B8B8B8"/>
<path d="M288.222 158.763C288.222 158.763 293.902 148.549 304.107 145.422C304.107 145.422 293.356 147.975 287.98 156.774L288.222 158.763Z" fill="#B8B8B8"/>
<path d="M288.222 129.824C288.222 129.824 293.902 119.61 304.107 116.492C304.107 116.492 293.356 119.046 287.98 127.835L288.222 129.824Z" fill="#B8B8B8"/>
<path d="M288.222 144.292C288.222 144.292 293.902 134.078 304.107 130.951C304.107 130.951 293.356 133.505 287.98 142.303L288.222 144.292Z" fill="#B8B8B8"/>
<path d="M287.38 137.197C287.38 137.197 281.905 126.983 272.05 123.865C272.05 123.865 282.452 126.419 287.657 135.208L287.38 137.197Z" fill="#B8B8B8"/>
<path d="M287.38 151.379C287.38 151.379 281.905 141.165 272.05 138.047C272.05 138.047 282.452 140.6 287.657 149.399L287.38 151.379Z" fill="#B8B8B8"/>
<path d="M99.9791 149.894C99.9791 149.894 116.787 151.552 125.299 161.972C125.299 161.972 134.259 149.903 150.467 150.145C154.415 145.379 156.928 139.59 157.713 133.452C158.499 127.314 157.524 121.078 154.904 115.472C152.283 109.866 148.124 105.12 142.91 101.785C137.697 98.4512 131.644 96.6664 125.455 96.639C119.267 96.6115 113.198 98.3425 107.955 101.63C102.712 104.918 98.5112 109.627 95.8409 115.21C93.1707 120.793 92.1411 127.019 92.8722 133.164C93.6032 139.31 96.0647 145.121 99.9701 149.921L99.9791 149.894Z" fill="#48D189"/>
<path opacity="0.5" d="M99.9791 149.894C99.9791 149.894 116.787 151.552 125.299 161.972C125.299 161.972 134.259 149.903 150.467 150.145C154.415 145.379 156.928 139.59 157.713 133.452C158.499 127.314 157.524 121.078 154.904 115.472C152.283 109.866 148.124 105.12 142.91 101.785C137.697 98.4512 131.644 96.6664 125.455 96.639C119.267 96.6115 113.198 98.3425 107.955 101.63C102.712 104.918 98.5112 109.627 95.8409 115.21C93.1707 120.793 92.1411 127.019 92.8722 133.164C93.6032 139.31 96.0647 145.121 99.9701 149.921L99.9791 149.894Z" fill="white"/>
<path d="M124.744 98.8945L124.179 207.826H127.019L124.744 98.8945Z" fill="#B8B8B8"/>
<path d="M125.64 158.763C125.64 158.763 131.32 148.549 141.525 145.422C141.525 145.422 130.774 147.975 125.398 156.774L125.64 158.763Z" fill="#B8B8B8"/>
<path d="M125.64 129.824C125.64 129.824 131.32 119.61 141.525 116.492C141.525 116.492 130.774 119.046 125.398 127.835L125.64 129.824Z" fill="#B8B8B8"/>
<path d="M125.64 144.292C125.64 144.292 131.32 134.078 141.525 130.951C141.525 130.951 130.774 133.505 125.398 142.303L125.64 144.292Z" fill="#B8B8B8"/>
<path d="M124.744 137.197C124.744 137.197 119.278 126.983 109.423 123.91C109.423 123.91 119.825 126.464 125.03 135.253L124.744 137.197Z" fill="#B8B8B8"/>
<path d="M124.744 151.379C124.744 151.379 119.269 141.165 109.414 138.047C109.414 138.047 119.816 140.6 125.021 149.399L124.744 151.379Z" fill="#B8B8B8"/>
<path d="M16.1255 208.301H402.771" stroke="#263238" stroke-width="0.546746" stroke-miterlimit="10"/>
<path d="M153.871 40.3333C153.871 33.4074 157.527 29.4473 164.202 29.4473C170.877 29.4473 174.541 33.4074 174.541 40.3333V62.8579C174.541 69.7837 170.886 73.7439 164.202 73.7439C157.518 73.7439 153.871 69.7837 153.871 62.8579V40.3333ZM160.681 63.2879C160.681 66.379 162.043 67.5527 164.202 67.5527C166.361 67.5527 167.732 66.379 167.732 63.2879V39.9032C167.732 36.8121 166.37 35.6384 164.202 35.6384C162.034 35.6384 160.681 36.8121 160.681 39.9032V63.2879Z" fill="#263238"/>
<path d="M179.675 40.3333C179.675 33.4074 183.322 29.4473 190.006 29.4473C196.69 29.4473 200.336 33.4074 200.336 40.3333V62.8579C200.336 69.7837 196.681 73.7439 190.006 73.7439C183.331 73.7439 179.675 69.7837 179.675 62.8579V40.3333ZM186.476 63.2879C186.476 66.379 187.838 67.5527 190.006 67.5527C192.174 67.5527 193.527 66.379 193.527 63.2879V39.9032C193.527 36.8121 192.165 35.6384 190.006 35.6384C187.847 35.6384 186.476 36.8121 186.476 39.9032V63.2879Z" fill="#263238"/>
<path d="M226.194 40.6471V46.2737C226.194 53.2085 222.852 57.0253 216.052 57.0253H212.835V73.2961H206.026V29.9492H216.052C222.852 29.9492 226.194 33.7212 226.194 40.6471ZM212.835 36.1672V50.8252H216.052C218.211 50.8252 219.385 49.8397 219.385 46.7486V40.2528C219.385 37.1528 218.211 36.1672 216.052 36.1672H212.835Z" fill="#263238"/>
<path d="M240.117 29.4473C246.729 29.4473 250.134 33.4074 250.134 40.3333V41.6951H243.701V39.9032C243.701 36.8121 242.465 35.6384 240.296 35.6384C238.128 35.6384 236.892 36.8121 236.892 39.9032C236.892 48.8091 250.197 50.4846 250.197 62.8579C250.197 69.7837 246.729 73.7439 240.055 73.7439C233.38 73.7439 229.903 69.7837 229.903 62.8579V60.17H236.336V63.261C236.336 66.3521 237.698 67.4721 239.866 67.4721C242.035 67.4721 243.388 66.3521 243.388 63.261C243.388 54.3551 230.091 52.6797 230.091 40.3064C230.091 33.4164 233.496 29.4473 240.117 29.4473Z" fill="#263238"/>
<path d="M256.263 63.6555L255.367 48.0119V29.9492H262.176V48.0119L261.28 63.6555H256.263ZM262.077 66.6928V73.2513H255.555V66.6928H262.077Z" fill="#263238"/>
<path opacity="0.3" d="M121.688 251.542C121.688 254.23 105.176 256.371 84.7925 256.371C64.4093 256.371 47.8966 254.212 47.8966 251.542C47.8966 248.872 64.4182 246.713 84.7925 246.713C105.167 246.713 121.688 248.881 121.688 251.542Z" fill="black"/>
<path opacity="0.3" d="M198.93 251.542C198.93 254.23 182.408 256.371 162.034 256.371C141.659 256.371 125.138 254.212 125.138 251.542C125.138 248.872 141.659 246.713 162.034 246.713C182.408 246.713 198.93 248.881 198.93 251.542Z" fill="black"/>
<path opacity="0.3" d="M301.249 251.542C301.249 254.23 284.736 256.371 264.362 256.371C243.988 256.371 227.466 254.212 227.466 251.542C227.466 248.872 243.979 246.713 264.362 246.713C284.745 246.713 301.249 248.881 301.249 251.542Z" fill="black"/>
<path opacity="0.3" d="M386.724 251.542C386.724 254.23 370.203 256.371 349.828 256.371C329.454 256.371 312.896 254.212 312.896 251.542C312.896 248.872 329.418 246.713 349.792 246.713C370.167 246.713 386.724 248.881 386.724 251.542Z" fill="black"/>
<path d="M268.349 110.266C268.349 110.266 266.835 116.537 266.835 117.595C266.834 118.249 266.762 118.901 266.62 119.539C266.62 119.539 263.386 123.418 263.816 124.494C264.338 125.33 265.087 126 265.975 126.429C265.975 126.429 267.695 132.701 269.424 133.113C271.2 133.445 272.996 133.66 274.8 133.758L275.445 138.928L284.064 137.637L281.914 129.878L282.81 123.194C282.81 123.194 284.315 120.399 282.81 115.874C281.305 111.35 278.07 111.135 275.911 111.135C273.377 110.974 270.853 110.684 268.349 110.266Z" fill="white" stroke="#263238" stroke-width="0.546746" stroke-linecap="round" stroke-linejoin="round"/>
<path d="M272.229 107.039C272.229 107.039 264.684 106.815 264.9 108.759C265.115 110.704 272.874 113.239 272.874 113.239C272.874 113.239 270.284 114.959 271.574 116.689C272.865 118.418 275.884 119.923 275.884 119.923C275.884 119.923 274.988 123.588 276.323 123.803C277.658 124.018 278.473 122.073 278.688 121.428C278.904 120.783 281.278 120.998 281.923 122.719C282.288 123.612 282.505 124.559 282.568 125.523C282.568 125.523 285.157 117.764 285.587 114.314C286.017 110.865 276.323 107.039 272.229 107.039Z" fill="#263238" stroke="#263238" stroke-width="0.546746" stroke-linecap="round" stroke-linejoin="round"/>
<path d="M277.004 123.912C277.004 123.912 279.611 118.177 281.17 121C282.729 123.822 282.066 126.761 280.534 127.074C279.002 127.388 277.721 127.693 277.721 127.693" fill="white"/>
<path d="M277.004 123.912C277.004 123.912 279.611 118.177 281.17 121C282.729 123.822 282.066 126.761 280.534 127.074C279.002 127.388 277.721 127.693 277.721 127.693" stroke="#263238" stroke-width="0.546746" stroke-linecap="round" stroke-linejoin="round"/>
<path d="M266.405 183.75C265.984 184.243 259.076 199.053 258.216 204.008C257.356 208.963 251.756 238.494 251.532 239.784C251.308 241.074 239.472 243.664 238.603 243.879C237.734 244.094 239.499 246.468 242.053 247.113C244.606 247.758 251.971 250.778 253.7 249.048C255.429 247.319 257.795 237.625 258.44 236.55C259.085 235.474 271.216 206.893 271.216 206.893C271.216 206.893 277.434 193.176 278.724 191.877C280.015 190.578 277.192 184.834 276.108 183.105C275.024 181.376 269.424 180.301 266.405 183.75Z" fill="#263238" stroke="#263238" stroke-width="0.546746" stroke-linecap="round" stroke-linejoin="round"/>
<path d="M265.115 183.941C265.115 183.941 268.134 198.384 269.639 203.554C271.048 207.896 273.168 211.974 275.911 215.622C277.64 217.997 286.045 238.917 286.045 238.917L287.335 242.152C287.335 242.152 286.905 243.442 284.539 245.162C282.174 246.883 275.481 249.687 277.21 250.341C278.94 250.995 285.83 250.986 289.064 250.771C291.849 250.574 294.459 249.344 296.384 247.322C297.683 245.807 294.234 241.498 294.234 240.638C294.234 239.778 286.69 213.49 286.26 212.191C285.83 210.892 283.67 201.636 283.67 201.636V191.109C283.67 191.109 284.754 189.173 284.754 184.837C284.754 180.5 281.52 179.658 281.52 179.658L263.843 181.387L265.115 183.941Z" fill="#263238" stroke="#263238" stroke-width="0.546746" stroke-linecap="round" stroke-linejoin="round"/>
<path d="M263.618 182.677C263.618 182.677 264.057 186.341 265.348 186.556C266.638 186.771 279.997 190.436 285.82 186.126C285.82 186.126 286.896 182.892 286.251 182.032C285.605 181.172 284.091 181.602 276.341 181.602C268.591 181.602 263.618 181.602 263.618 182.677Z" fill="#48D189" stroke="#263238" stroke-width="0.546746" stroke-linecap="round" stroke-linejoin="round"/>
<path d="M283.428 134.402C283.428 134.402 275.454 135.478 272.005 138.882C268.555 142.287 265.545 148.585 264.04 154.4C262.534 160.215 261.45 181.557 263.601 182.632C265.751 183.707 283.858 184.792 286.896 183.528C289.933 182.265 286.681 172.105 286.681 168.225C286.681 164.346 290.13 151.202 289.485 143.882C288.84 136.562 283.428 134.402 283.428 134.402Z" fill="#48D189" stroke="#263238" stroke-width="0.546746" stroke-linecap="round" stroke-linejoin="round"/>
<path d="M254.659 156.8C254.56 147.93 250.941 140.359 246.129 137.089V135.297L232.869 135.431C225.406 135.512 219.43 145.287 219.582 157.203C219.734 169.12 225.854 178.769 233.326 178.706L246.586 178.572V176.78C251.245 173.313 254.704 165.67 254.659 156.8Z" fill="#263238" stroke="#263238" stroke-width="0.546746" stroke-linecap="round" stroke-linejoin="round"/>
<path d="M260.608 156.739C260.509 147.421 256.917 139.465 251.863 136.006V134.098L246.183 134.16C238.334 134.241 232.089 144.482 232.224 157.034C232.358 169.587 238.818 179.693 246.667 179.613L252.347 179.55V177.651C257.284 174.085 260.707 166.021 260.608 156.739Z" fill="white" stroke="#263238" stroke-width="0.546746" stroke-linecap="round" stroke-linejoin="round"/>
<path d="M266.306 156.675C266.441 169.218 260.187 179.468 252.347 179.549C244.508 179.629 238.012 169.523 237.904 156.979C237.797 144.436 244.024 134.186 251.863 134.096C259.703 134.007 266.154 144.122 266.306 156.675Z" fill="#737373" stroke="#263238" stroke-width="0.546746" stroke-linecap="round" stroke-linejoin="round"/>
<path d="M263.045 156.29C263.108 162.23 260.142 167.086 256.424 167.131C252.706 167.176 249.641 162.374 249.579 156.38C249.516 150.386 252.482 145.628 256.2 145.538C259.918 145.449 262.982 150.341 263.045 156.29Z" fill="#263238" stroke="#263238" stroke-width="0.546746" stroke-linecap="round" stroke-linejoin="round"/>
<path d="M368.626 200.964C369.365 195.441 369.68 189.87 369.566 184.299C366.655 185.643 349.667 186.136 348.108 186.171C346.549 186.207 329.562 185.643 326.65 184.299C326.521 189.869 326.821 195.44 327.546 200.964C328.719 208.23 339.041 237.322 339.274 238.729C339.576 240.085 339.968 241.42 340.448 242.725C340.448 242.725 334.579 246.945 331.999 248.584C329.418 250.224 331.3 250.932 333.88 250.932C336.461 250.932 341.854 250.224 343.494 250.224C344.945 250.224 347.472 248.961 348.063 248.656C348.655 248.961 351.181 250.224 352.624 250.224C354.272 250.224 359.666 250.932 362.246 250.932C364.827 250.932 366.726 250.224 364.128 248.584C361.53 246.945 355.679 242.725 355.679 242.725C356.159 241.42 356.551 240.085 356.853 238.729C357.13 237.295 367.452 208.203 368.626 200.964Z" fill="#263238" stroke="#263238" stroke-width="0.546746" stroke-linecap="round" stroke-linejoin="round"/>
<path d="M344.56 138.686C344.56 138.686 335.484 141.651 330.798 144.626C326.112 147.6 321.408 163.71 321.408 164.337C321.139 165.46 320.773 166.557 320.315 167.616C320.315 167.616 315.62 166.523 314.689 170.43C313.757 174.336 319.374 179.344 322.349 179.506C325.324 179.667 326.256 178.726 326.256 178.726C326.256 178.726 324.383 182.48 325.162 184.039C325.942 185.598 332.518 191.395 345.501 191.207C358.483 191.019 367.9 188.86 369.271 186.987C370.642 185.115 370.839 181.199 370.839 181.199C370.839 181.199 375.686 179.945 377.406 176.818C379.126 173.691 378.813 170.403 377.872 167.124C376.931 163.844 372.084 154.32 368.805 148.998C365.526 143.676 358.636 140.71 355.365 139.77C352.095 138.829 346.746 138.686 344.56 138.686Z" fill="#48D189" stroke="#263238" stroke-width="0.546746" stroke-linecap="round" stroke-linejoin="round"/>
<path d="M347.311 151.856C348.61 151.426 352.686 147.806 354.254 144.187C354.875 142.801 355.311 141.34 355.554 139.841L355.348 139.779C352.068 138.838 346.746 138.686 344.596 138.686C344.596 138.686 342.696 139.304 340.188 140.262C340.203 142.199 340.567 144.117 341.263 145.925C342.679 149.545 346.047 152.295 347.311 151.856Z" fill="white" stroke="#263238" stroke-width="0.546746" stroke-linecap="round" stroke-linejoin="round"/>
<path d="M362.229 159.166C362.229 159.166 365.983 179.191 370.238 181.252" stroke="#263238" stroke-width="0.546746" stroke-linecap="round" stroke-linejoin="round"/>
<path d="M326.255 178.726C326.255 178.726 330.95 161.048 331.264 159.328" stroke="#263238" stroke-width="0.546746" stroke-linecap="round" stroke-linejoin="round"/>
<path d="M368.294 168.215C368.294 168.215 365.696 168.797 365.696 170.679" stroke="#263238" stroke-width="0.546746" stroke-linecap="round" stroke-linejoin="round"/>
<path d="M324.15 168.502C324.15 168.502 327.044 170.383 326.757 173.277" stroke="#263238" stroke-width="0.546746" stroke-linecap="round" stroke-linejoin="round"/>
<path d="M343.539 250.241C344.99 250.241 347.517 248.978 348.108 248.673C348.699 248.978 351.226 250.241 352.669 250.241C354.317 250.241 359.711 250.949 362.291 250.949C364.872 250.949 366.771 250.241 364.173 248.602C361.924 247.177 357.211 243.808 356.01 242.948C353.242 245.475 347.768 244.848 347.768 244.848C346.659 244.681 345.561 244.447 344.479 244.149C342.84 243.674 340.492 242.742 340.492 242.742C340.492 242.742 334.624 246.962 332.043 248.602C329.463 250.241 331.345 250.949 333.925 250.949C336.505 250.949 341.899 250.241 343.539 250.241Z" fill="#48D189" stroke="#263238" stroke-width="0.546746" stroke-linecap="round" stroke-linejoin="round"/>
<path d="M347.768 242.779V201.869" stroke="white" stroke-width="0.546746" stroke-linecap="round" stroke-linejoin="round"/>
<path d="M348.108 248.63L347.768 244.804V242.779" stroke="#263238" stroke-width="0.546746" stroke-linecap="round" stroke-linejoin="round"/>
<path d="M344.479 200.461H351.28" stroke="white" stroke-width="0.546746" stroke-linecap="round" stroke-linejoin="round"/>
<path d="M335.591 115.21C335.591 115.21 330.717 118.13 331.443 120.693C332.169 123.255 334.373 123.748 333.889 125.173C333.405 126.597 331.712 127.493 333.638 128.389C334.735 128.88 335.883 129.25 337.061 129.491C337.061 129.491 338.853 135.709 341.935 136.802C345.017 137.895 350.357 137.17 354.138 136.686C355.415 136.561 356.624 136.05 357.604 135.221C358.583 134.392 359.287 133.284 359.621 132.045C359.989 130.71 358.035 132.296 357.059 130.826C356.082 129.357 357.552 125.585 358.645 122.288C359.738 118.991 356.449 112.772 352.185 110.703C347.92 108.633 339.776 109.717 335.591 115.21Z" fill="#263238" stroke="#263238" stroke-width="0.546746" stroke-linecap="round" stroke-linejoin="round"/>
<path d="M343.781 136.453C343.161 138.498 342.74 140.598 342.526 142.724C342.365 145.412 344.56 148.36 346.907 148.199C349.255 148.037 351.28 143.352 351.593 141.031C351.907 138.71 350.814 132.43 350.814 132.43C350.814 132.43 347.23 132.591 345.805 133.836C344.969 134.57 344.281 135.459 343.781 136.453Z" fill="white" stroke="#263238" stroke-width="0.546746" stroke-linecap="round" stroke-linejoin="round"/>
<path d="M340.6 118.623C340.6 118.623 340.716 122.279 344.381 125.791C346.584 127.921 349.196 129.582 352.059 130.674C351.995 131.474 351.789 132.257 351.45 132.985C351.291 133.29 351.043 133.539 350.738 133.699C350.434 133.859 350.089 133.922 349.748 133.881H348.52C348.52 133.881 346.728 138.083 344.56 138.693C342.392 139.302 337.061 138.881 336.326 133.514C335.591 128.147 335.475 123.757 336.084 122.655C336.693 121.553 340.6 118.623 340.6 118.623Z" fill="white" stroke="#263238" stroke-width="0.546746" stroke-linecap="round" stroke-linejoin="round"/>
<path d="M378.938 165.843C379.494 164.722 379.832 163.506 379.933 162.259C379.933 160.628 376.905 158.29 376.349 157.707C375.794 157.125 375.238 157.188 375.122 158.003C375.12 158.461 375.212 158.914 375.393 159.334C375.573 159.755 375.837 160.134 376.17 160.449C376.624 160.807 376.953 161.299 377.111 161.856C377.164 162.259 376.107 164.239 376.636 165.52C377.164 166.801 378.652 167.187 378.938 165.843Z" fill="white" stroke="#263238" stroke-width="0.546746" stroke-linecap="round" stroke-linejoin="round"/>
<path d="M257.598 156.695C257.598 156.695 270.786 160.915 278.716 170.771C286.645 180.627 291.85 179.211 301.706 175.932C311.562 172.652 315.316 160.915 328.926 170.771C342.535 180.627 345.349 184.372 356.611 178.745C367.873 173.118 373.966 159.509 384.296 164.195C394.627 168.88 389.923 192.865 390.864 204.513C391.804 216.161 390.389 245.342 392.736 249.096C395.084 252.85 419.015 249.992 419.015 249.992" stroke="#263238" stroke-width="1.64024" stroke-linecap="round" stroke-linejoin="round"/>
<path d="M282.299 141.031C282.299 141.031 279.674 136.748 275.804 137.868C271.709 139.051 269.595 144.902 268.636 148.548C267.677 152.195 267.032 156.137 265.276 159.533C265.276 159.533 257.517 159.398 253.189 158.144C249.888 157.115 246.64 155.919 243.459 154.56C243.459 154.56 241.927 152.419 240.843 151.998C239.759 151.577 236.946 150.752 236.739 151.397C236.533 152.043 240.001 154.166 240.001 154.166C240.001 154.166 233.55 155.062 232.905 155.752C232.26 156.442 237.465 158.503 237.465 158.503C237.465 158.503 239.409 159.13 244.14 158.001C244.14 158.001 261.495 169.021 264.953 170.284C268.412 171.548 270.329 171.951 272.686 167.399C275.042 162.848 282.864 151.559 284.109 147.016" fill="#48D189"/>
<path d="M282.299 141.031C282.299 141.031 279.674 136.748 275.804 137.868C271.709 139.051 269.595 144.902 268.636 148.548C267.677 152.195 267.032 156.137 265.276 159.533C265.276 159.533 257.517 159.398 253.189 158.144C249.888 157.115 246.64 155.919 243.459 154.56C243.459 154.56 241.927 152.419 240.843 151.998C239.759 151.577 236.946 150.752 236.739 151.397C236.533 152.043 240.001 154.166 240.001 154.166C240.001 154.166 233.55 155.062 232.905 155.752C232.26 156.442 237.465 158.503 237.465 158.503C237.465 158.503 239.409 159.13 244.14 158.001C244.14 158.001 261.495 169.021 264.953 170.284C268.412 171.548 270.329 171.951 272.686 167.399C275.042 162.848 282.864 151.559 284.109 147.016" stroke="#263238" stroke-width="0.546746" stroke-linecap="round" stroke-linejoin="round"/>
<path d="M247.966 156.39C245.43 155.44 243.486 154.598 243.486 154.598C243.486 154.598 241.954 152.457 240.87 152.036C239.786 151.615 236.972 150.79 236.766 151.435C236.56 152.081 240.028 154.204 240.028 154.204C240.028 154.204 233.577 155.1 232.932 155.79C232.286 156.48 237.492 158.54 237.492 158.54C237.492 158.54 239.436 159.168 244.167 158.039L246.595 159.571L247.966 156.39Z" fill="white" stroke="#263238" stroke-width="0.546746" stroke-linecap="round" stroke-linejoin="round"/>
<path d="M314.859 167.492C314.303 166.371 313.965 165.155 313.864 163.908C313.864 162.277 316.902 159.948 317.448 159.365C317.995 158.783 318.55 158.846 318.667 159.661C318.668 160.119 318.576 160.572 318.396 160.993C318.215 161.413 317.951 161.793 317.618 162.107C317.164 162.465 316.835 162.957 316.678 163.514C316.624 163.908 317.681 165.897 317.152 167.178C316.624 168.459 315.146 168.827 314.859 167.492Z" fill="white" stroke="#263238" stroke-width="0.546746" stroke-linecap="round" stroke-linejoin="round"/>
<path d="M316.946 162.571C316.946 162.571 314.447 167.185 315.898 168.843C317.35 170.5 318.756 165.116 319.025 163.628C319.294 162.141 317.869 160.645 316.946 162.571Z" fill="white" stroke="#263238" stroke-width="0.546746" stroke-linecap="round" stroke-linejoin="round"/>
<path d="M319.007 164.228C319.007 164.228 316.507 168.842 317.959 170.499C319.41 172.157 320.817 166.772 321.086 165.285C321.354 163.798 319.93 162.248 319.007 164.228Z" fill="white" stroke="#263238" stroke-width="0.546746" stroke-linecap="round" stroke-linejoin="round"/>
<path d="M321.274 164.612C321.274 164.612 318.774 169.226 320.226 170.884C321.677 172.541 323.084 167.157 323.353 165.669C323.621 164.182 322.197 162.677 321.274 164.612Z" fill="white" stroke="#263238" stroke-width="0.546746" stroke-linecap="round" stroke-linejoin="round"/>
<path d="M324.177 164.649C324.177 164.649 321.847 168.233 323.12 169.585C324.392 170.938 325.763 166.683 326.031 165.455C326.3 164.228 325.037 163.036 324.177 164.649Z" fill="white" stroke="#263238" stroke-width="0.546746" stroke-linecap="round" stroke-linejoin="round"/>
<path d="M377.272 162.751C377.272 162.751 379.772 167.365 378.32 169.023C376.869 170.68 375.462 165.287 375.193 163.799C374.924 162.312 376.349 160.816 377.272 162.751Z" fill="white" stroke="#263238" stroke-width="0.546746" stroke-linecap="round" stroke-linejoin="round"/>
<path d="M375.211 164.364C375.211 164.364 377.711 168.979 376.259 170.636C374.808 172.294 373.401 166.9 373.133 165.413C372.864 163.925 374.288 162.438 375.211 164.364Z" fill="white" stroke="#263238" stroke-width="0.546746" stroke-linecap="round" stroke-linejoin="round"/>
<path d="M372.926 164.794C372.926 164.794 375.426 169.408 373.975 171.066C372.523 172.724 371.117 167.339 370.857 165.843C370.597 164.346 372.03 162.859 372.926 164.794Z" fill="white" stroke="#263238" stroke-width="0.546746" stroke-linecap="round" stroke-linejoin="round"/>
<path d="M370.041 164.828C370.041 164.828 372.371 168.457 371.099 169.765C369.826 171.073 368.456 166.862 368.196 165.635C367.936 164.407 369.181 163.216 370.041 164.828Z" fill="white" stroke="#263238" stroke-width="0.546746" stroke-linecap="round" stroke-linejoin="round"/>
<path d="M61.7751 215.882V220.971C60.0091 222.901 58.7391 225.232 58.0748 227.762C56.9907 231.92 53.595 249.812 54.4909 250.278C55.3869 250.744 63.8179 252.67 66.5058 252.267C69.588 251.801 72.2131 251.962 70.6631 250.26C69.1131 248.558 60.9688 243.8 60.9688 243.8C60.9688 243.8 69.9284 230.845 71.9175 226.06C73.9065 221.276 74.2291 213.875 74.2291 213.875L62.2052 213.418L61.7751 215.882Z" fill="white" stroke="#263238" stroke-width="0.546746" stroke-linecap="round" stroke-linejoin="round"/>
<path d="M66.506 252.266C69.5881 251.8 72.2133 251.961 70.6632 250.259C69.1132 248.556 60.9689 243.799 60.9689 243.799L60.6643 245.645L54.7957 244.928C54.3656 247.92 54.1775 250.115 54.491 250.304C55.4497 250.734 63.8181 252.669 66.506 252.266Z" fill="#263238" stroke="#263238" stroke-width="0.546746" stroke-linecap="round" stroke-linejoin="round"/>
<path d="M91.2344 218.517L92.6231 220.99C92.0474 222.1 91.7088 223.318 91.6286 224.565C91.5483 225.813 91.7284 227.064 92.1572 228.238C93.546 232.557 96.7894 248.443 96.7894 249.365C96.7894 250.288 98.7874 250.906 100.373 250.906C101.959 250.906 106.349 251.211 106.968 251.211C107.586 251.211 112.057 251.982 113.598 251.059C115.139 250.136 111.636 248.281 109.324 247.206C107.012 246.131 101.923 243.353 101.923 243.353C101.923 243.353 103.151 230.702 103.151 225.147C103.151 219.592 104.387 217.747 102.694 214.351C101 210.955 90.3563 215.901 90.3563 215.901L91.2344 218.517Z" fill="white" stroke="#263238" stroke-width="0.546746" stroke-linecap="round" stroke-linejoin="round"/>
<path d="M109.279 247.202C106.968 246.118 101.879 243.35 101.879 243.35L101.26 245.661L96.3058 246.557C96.6015 248.098 96.7896 249.155 96.7896 249.371C96.7896 250.266 98.7876 250.912 100.373 250.912C101.959 250.912 106.35 251.216 106.968 251.216C107.586 251.216 112.057 251.987 113.598 251.064C115.139 250.141 111.591 248.277 109.279 247.202Z" fill="#263238" stroke="#263238" stroke-width="0.546746" stroke-linecap="round" stroke-linejoin="round"/>
<path d="M82.9288 115.847C81.7198 113.781 80.338 111.821 78.7984 109.988C76.675 107.595 70.0179 107.73 67.0971 110.884C64.1762 114.037 65.0991 119.664 66.2011 121.259C67.3032 122.854 69.5252 130.308 69.5252 130.308L70.0538 135.63L82.4271 140.02L79.9004 131.374C79.9004 131.374 84.6939 130.478 85.0881 128.982C85.4823 127.486 84.2907 122.46 84.2907 122.46C84.2907 122.46 85.8855 121.393 85.7511 120.462C85.6167 119.53 82.9288 115.847 82.9288 115.847Z" fill="white" stroke="#263238" stroke-width="0.546746" stroke-linecap="round" stroke-linejoin="round"/>
<path d="M68.692 121.581C68.692 121.581 70.8065 123.373 71.9623 121.321C73.1181 119.269 73.9961 117.262 73.9961 115.524C73.9961 113.786 69.6507 112.343 72.5446 111.179C75.4386 110.014 77.5262 112.603 78.8164 110.005C80.1066 107.407 78.9329 107.129 71.9802 107.129C65.0275 107.129 61.5511 110.605 63.0205 114.951C64.1957 118.16 65.6497 121.26 67.3659 124.215L68.692 121.581Z" fill="#263238" stroke="#263238" stroke-width="0.546746" stroke-linecap="round" stroke-linejoin="round"/>
<path d="M83.3231 118.92C83.3231 119.577 83.1282 120.22 82.7629 120.766C82.3977 121.313 81.8785 121.739 81.2711 121.991C80.6638 122.242 79.9954 122.308 79.3506 122.18C78.7058 122.052 78.1135 121.735 77.6486 121.27C77.1838 120.805 76.8672 120.213 76.7389 119.568C76.6107 118.923 76.6765 118.255 76.9281 117.648C77.1797 117.04 77.6057 116.521 78.1523 116.156C78.699 115.791 79.3417 115.596 79.9991 115.596C80.8807 115.596 81.7262 115.946 82.3495 116.569C82.9729 117.193 83.3231 118.038 83.3231 118.92V118.92Z" stroke="#263238" stroke-width="0.546746" stroke-linecap="round" stroke-linejoin="round"/>
<path d="M82.8392 115.97C83.226 115.812 83.6398 115.73 84.0577 115.729C84.7499 115.73 85.4221 115.961 85.9689 116.385C86.5158 116.809 86.9064 117.403 87.0795 118.073C87.2527 118.743 87.1986 119.452 86.9258 120.088C86.653 120.724 86.1768 121.252 85.5719 121.588" stroke="#263238" stroke-width="0.546746" stroke-linecap="round" stroke-linejoin="round"/>
<path d="M76.675 118.918L68.6919 121.579" stroke="#263238" stroke-width="0.546746" stroke-linecap="round" stroke-linejoin="round"/>
<path d="M70.9856 123.31C70.9856 123.31 69.3908 119.986 67.7959 120.622C66.2011 121.258 66.9985 126.482 68.5934 127.01C69.1293 127.131 69.6863 127.121 70.2179 126.983C70.7494 126.844 71.24 126.58 71.6486 126.213C71.6486 126.213 72.9836 129.008 74.5784 129.797" fill="white"/>
<path d="M70.9856 123.31C70.9856 123.31 69.3908 119.986 67.7959 120.622C66.2011 121.258 66.9985 126.482 68.5934 127.01C69.1293 127.131 69.6863 127.121 70.2179 126.983C70.7494 126.844 71.24 126.58 71.6486 126.213C71.6486 126.213 72.9836 129.008 74.5784 129.797" stroke="#263238" stroke-width="0.546746" stroke-linecap="round" stroke-linejoin="round"/>
<path d="M60.5208 183.042L59.5262 195.783L56.5516 214.643C56.5516 214.643 63.5043 220.1 69.9911 220.1C76.4779 220.1 78.2609 219.275 78.2609 219.275L81.8985 199.923L85.5361 220.27C85.5361 220.27 92.7039 219.114 97.4525 217.949C100.754 217.031 103.884 215.578 106.717 213.649L97.121 188.669L95.0424 175.785C95.0424 175.785 84.2908 176.78 77.8308 177.111C71.3709 177.443 62.7786 175.785 62.7786 175.785L60.5208 183.042Z" fill="#48D189" stroke="#263238" stroke-width="0.546746" stroke-linecap="round" stroke-linejoin="round"/>
<path d="M67.3391 132.135C67.3391 132.135 82.5705 137.448 87.2743 142.609C89.8726 145.476 92.7845 165.098 93.8328 169.891C94.8811 174.684 96.7088 184.227 96.7088 184.227C96.7088 184.227 87.4177 188.42 80.232 188.572C73.0464 188.724 59.2574 185.427 59.2574 185.427C59.2574 185.427 60.8971 164.166 60.8971 154.283C60.8971 144.401 61.0494 137.95 62.689 134.805C62.698 134.832 65.3948 131.83 67.3391 132.135Z" fill="#263238" stroke="#263238" stroke-width="0.546746" stroke-linecap="round" stroke-linejoin="round"/>
<path d="M63.3341 186.969C63.3341 186.969 64.1584 200.865 63.3341 205.999C62.7553 209.311 61.7557 212.536 60.3595 215.595" stroke="#263238" stroke-width="0.546746" stroke-linecap="round" stroke-linejoin="round"/>
<path d="M63.6656 193.59C64.9097 193.162 66.0213 192.419 66.8915 191.433C67.7617 190.446 68.3605 189.251 68.6293 187.963" stroke="#263238" stroke-width="0.546746" stroke-linecap="round" stroke-linejoin="round"/>
<path d="M57.376 211.957C57.376 211.957 65.6547 219.071 78.5566 216.437" stroke="#263238" stroke-width="0.546746" stroke-linecap="round" stroke-linejoin="round"/>
<path d="M85.1777 216.087C85.1777 216.087 98.7427 214.6 104.701 210.631" stroke="#263238" stroke-width="0.546746" stroke-linecap="round" stroke-linejoin="round"/>
<path d="M145.853 125.701C145.853 125.701 144.545 126.669 139.984 130.002C135.424 133.335 139.016 138.37 139.016 138.37C139.016 138.37 135.755 138.881 131.401 143.459C127.046 148.037 133.345 155.895 139.231 157.122C145.118 158.35 151.999 151.066 154.06 144.31C156.12 137.555 153.397 127.367 152.026 125.262C150.655 123.156 145.853 125.701 145.853 125.701Z" fill="#263238" stroke="#263238" stroke-width="0.546746" stroke-linecap="round" stroke-linejoin="round"/>
<path d="M163.127 124.805C163.127 124.805 165.394 121.301 163.342 116.221C161.29 111.141 155.162 108.821 149.195 112.503C147.206 113.686 145.663 115.493 144.806 117.643C143.949 119.793 143.826 122.165 144.455 124.392C145.037 126.74 147.976 130.351 148.594 130.404C149.213 130.458 154.579 132.411 158.244 130.7C161.908 128.989 163.127 124.805 163.127 124.805Z" fill="#263238" stroke="#263238" stroke-width="0.546746" stroke-linecap="round" stroke-linejoin="round"/>
<path d="M136.759 243.074C136.759 243.074 141.014 249.695 148.406 250.824C155.798 251.953 149.15 245.323 147.904 244.319C146.659 243.316 137.762 241.148 136.759 243.074Z" fill="#737373" stroke="#263238" stroke-width="0.546746" stroke-linecap="round" stroke-linejoin="round"/>
<path d="M176.136 244.776C176.136 244.776 184.263 246.774 183.636 248.53C183.008 250.286 176.387 250.151 172.517 249.148C168.646 248.144 165.008 246.648 165.51 245.026C166.012 243.405 176.136 244.776 176.136 244.776Z" fill="#737373" stroke="#263238" stroke-width="0.546746" stroke-linecap="round" stroke-linejoin="round"/>
<path d="M153.029 137.977C153.029 137.977 142.152 139.571 140.163 143.415C138.174 147.259 140.978 168.198 140.978 168.198C140.978 168.198 136.337 178.438 136.275 185.033C136.212 191.627 139.151 203.23 138.918 206.124C138.685 209.018 135.71 241.962 135.71 242.858C135.71 243.754 141.982 245.761 151.022 246.837C160.063 247.912 177.355 244.695 177.355 244.695C177.355 244.695 177.014 225.253 177.919 213.659C178.824 202.065 177.534 191.645 175.231 187.317C172.929 182.99 162.204 167.409 162.204 167.409C162.204 167.409 167.401 157.983 167.723 153.862C168.046 149.741 166.37 147.59 162.446 142.851C161.28 141.452 159.846 140.301 158.229 139.464C156.612 138.627 154.844 138.122 153.029 137.977Z" fill="#48D189" stroke="#263238" stroke-width="0.546746" stroke-linecap="round" stroke-linejoin="round"/>
<path d="M162.231 167.418C162.231 167.418 167.427 157.992 167.75 153.871C168.073 149.749 166.397 147.599 162.473 142.859C162.285 142.626 162.087 142.42 161.89 142.205L161.747 142.339C157.715 148.925 144.383 160.178 140.414 163.457C140.719 166.262 140.978 168.197 140.978 168.197C140.978 168.197 136.337 178.438 136.275 185.032C136.349 188.037 136.648 191.032 137.171 193.992C146.587 188.616 159.185 178.554 166.003 172.946C163.87 169.792 162.231 167.418 162.231 167.418Z" fill="#737373" stroke="#263238" stroke-width="0.546746" stroke-linecap="round" stroke-linejoin="round"/>
<path d="M151.022 130.288C151.323 132.747 151.487 135.221 151.515 137.698C151.372 139.535 151.963 143.728 155.099 145.045C158.235 146.362 160.206 144.525 160.197 142.68C160.083 141.155 159.782 139.651 159.301 138.2L159.391 133.137C159.391 133.137 153.979 129.751 151.022 130.288Z" fill="white" stroke="#263238" stroke-width="0.546746" stroke-linecap="round" stroke-linejoin="round"/>
<path d="M148.209 127.002C148.209 127.002 145.906 124.977 145.835 127.897C145.763 130.818 148.451 131.786 149.042 131.983C149.541 132.051 150.048 131.926 150.458 131.634C150.458 131.634 154.633 135.218 157.984 135.45C161.335 135.683 162.697 134.133 163.485 128.05C164.274 121.966 157.993 115.793 157.993 115.793C157.993 115.793 152.617 125.702 148.209 127.002Z" fill="white" stroke="#263238" stroke-width="0.546746" stroke-linecap="round" stroke-linejoin="round"/>
<path d="M96.9687 184.099C96.9381 183.061 97.1085 182.027 97.4704 181.053C98.0259 179.835 101.054 179.136 101.726 178.903C102.398 178.67 102.739 178.903 102.542 179.539C102.385 179.881 102.16 180.187 101.882 180.44C101.603 180.693 101.276 180.886 100.92 181.008C100.456 181.12 100.04 181.373 99.7282 181.734C99.558 182.021 99.6655 183.858 98.8323 184.637C97.999 185.416 96.6909 185.201 96.9687 184.099Z" fill="white" stroke="#263238" stroke-width="0.546746" stroke-linecap="round" stroke-linejoin="round"/>
<path d="M165.636 157.159C165.636 157.159 154.884 155.753 150.144 163.261C145.405 170.769 136.544 197.039 120.12 201.268C103.697 205.497 99.0026 171.701 89.1469 172.642C79.7572 173.537 73.1987 172.641 67.5631 182.963C64.5527 188.491 49.5004 248.852 42.3864 249.471C19.7274 251.451 5.14111 250.161 5.14111 250.161" stroke="#263238" stroke-width="1.64024" stroke-linecap="round" stroke-linejoin="round"/>
<path d="M68.038 132.566C68.038 132.566 65.5561 131.572 62.2411 133.552C58.926 135.532 50.0022 157.214 50.6652 159.535C51.3282 161.855 60.7538 166.156 66.0489 167.643C71.3441 169.131 80.9399 170.958 80.9399 170.958C80.9399 170.958 83.9145 175.59 84.909 175.752C86.3555 175.732 87.7963 175.567 89.2097 175.259C89.2097 175.259 91.0016 176.746 91.6915 175.089C92.3814 173.431 91.0285 171.29 89.5412 169.632C88.0539 167.975 81.7642 167.15 81.7642 167.15L64.7139 155.395L71.8817 142.162" fill="#263238"/>
<path d="M68.038 132.566C68.038 132.566 65.5561 131.572 62.2411 133.552C58.926 135.532 50.0022 157.214 50.6652 159.535C51.3282 161.855 60.7538 166.156 66.0489 167.643C71.3441 169.131 80.9399 170.958 80.9399 170.958C80.9399 170.958 83.9145 175.59 84.909 175.752C86.3555 175.732 87.7963 175.567 89.2097 175.259C89.2097 175.259 91.0016 176.746 91.6915 175.089C92.3814 173.431 91.0285 171.29 89.5412 169.632C88.0539 167.975 81.7642 167.15 81.7642 167.15L64.7139 155.395L71.8817 142.162" stroke="#263238" stroke-width="0.546746" stroke-linecap="round" stroke-linejoin="round"/>
<path d="M84.9089 175.742C86.3553 175.722 87.7961 175.557 89.2095 175.249C89.2095 175.249 91.0014 176.736 91.6913 175.079C92.3812 173.421 91.0283 171.28 89.541 169.622C88.0537 167.965 81.764 167.141 81.764 167.141L64.7138 155.394L67.2583 150.655C60.888 146.686 56.659 146.981 54.3743 147.779C52.0896 153.262 50.3514 158.459 50.6561 159.525C51.3191 161.845 60.7446 166.146 66.0398 167.633C71.335 169.121 80.9308 170.948 80.9308 170.948C80.9308 170.948 83.9143 175.581 84.9089 175.742Z" fill="white" stroke="#263238" stroke-width="0.546746" stroke-linecap="round" stroke-linejoin="round"/>
<path d="M191.484 157.527C190.759 149.705 187.004 143.281 182.525 140.728L182.381 139.133L170.68 140.217C164.095 140.826 159.552 149.866 160.529 160.403C161.505 170.94 167.634 178.976 174.219 178.322L185.92 177.238L185.768 175.643C189.71 172.346 192.21 165.349 191.484 157.527Z" fill="#263238" stroke="#263238" stroke-width="0.546746" stroke-linecap="round" stroke-linejoin="round"/>
<path d="M196.779 157.063C196.018 148.847 192.299 142.082 187.56 139.394L187.399 137.719L182.39 138.185C175.473 138.83 170.698 148.318 171.719 159.392C172.741 170.466 179.192 178.915 186.108 178.27L191.117 177.804L190.965 176.129C195.104 172.599 197.541 165.252 196.779 157.063Z" fill="white" stroke="#263238" stroke-width="0.546746" stroke-linecap="round" stroke-linejoin="round"/>
<path d="M201.797 156.566C202.827 167.641 198.052 177.129 191.126 177.774C184.2 178.419 177.758 169.961 176.71 158.896C175.661 147.831 180.455 138.289 187.372 137.688C194.289 137.088 200.757 145.501 201.797 156.566Z" fill="white" stroke="#263238" stroke-width="0.546746" stroke-linecap="round" stroke-linejoin="round"/>
<path d="M207.173 150.101L187.739 151.893C187.467 151.919 187.192 151.891 186.93 151.81C186.668 151.729 186.425 151.598 186.215 151.423C186.004 151.248 185.83 151.034 185.703 150.791C185.575 150.549 185.497 150.284 185.472 150.011C185.446 149.739 185.474 149.464 185.555 149.202C185.636 148.941 185.767 148.698 185.942 148.487C186.117 148.277 186.332 148.103 186.574 147.975C186.816 147.848 187.081 147.769 187.354 147.745L206.787 145.953C207.06 145.927 207.335 145.955 207.596 146.036C207.858 146.116 208.101 146.248 208.312 146.423C208.522 146.597 208.696 146.812 208.824 147.054C208.951 147.297 209.029 147.562 209.054 147.834C209.08 148.107 209.052 148.382 208.971 148.643C208.891 148.905 208.759 149.148 208.584 149.358C208.409 149.569 208.195 149.743 207.952 149.871C207.71 149.998 207.445 150.076 207.173 150.101Z" fill="#737373" stroke="#263238" stroke-width="0.546746" stroke-linecap="round" stroke-linejoin="round"/>
<path d="M208.615 165.502L189.182 167.294C188.909 167.32 188.634 167.291 188.373 167.211C188.111 167.13 187.868 166.999 187.657 166.824C187.447 166.649 187.273 166.434 187.145 166.192C187.018 165.95 186.939 165.685 186.915 165.412C186.889 165.14 186.917 164.865 186.998 164.603C187.078 164.342 187.21 164.099 187.385 163.888C187.559 163.677 187.774 163.503 188.016 163.376C188.259 163.248 188.524 163.17 188.796 163.145L208.23 161.353C208.779 161.306 209.325 161.477 209.749 161.829C210.174 162.181 210.442 162.686 210.497 163.235C210.522 163.508 210.494 163.782 210.414 164.044C210.333 164.306 210.202 164.549 210.027 164.759C209.852 164.97 209.637 165.144 209.395 165.271C209.153 165.399 208.888 165.477 208.615 165.502Z" fill="#737373" stroke="#263238" stroke-width="0.546746" stroke-linecap="round" stroke-linejoin="round"/>
<path d="M146.31 139.436C146.31 139.436 141.633 140.332 139.42 143.019C137.207 145.707 132.664 166.449 133.712 168.832C134.761 171.215 151.56 174.208 156.748 174.638C160.919 174.803 165.097 174.617 169.237 174.083C169.237 174.083 173.717 173.966 174.945 173.76C176.172 173.554 178.43 172.344 178.466 171.887C178.502 171.431 178.278 170.337 176.602 170.203C174.927 170.069 171.334 168.868 170.877 168.832C171.954 168.549 173.045 168.328 174.147 168.169C174.147 168.169 174.38 167.273 172.535 167.273C170.689 167.273 169.013 167.148 168.315 168.169C167.815 168.965 167.389 169.805 167.042 170.678C167.042 170.678 156.694 171.404 151.076 168.662C145.458 165.92 143.684 165.006 143.684 165.006L147.716 148.879" fill="#48D189"/>
<path d="M146.31 139.436C146.31 139.436 141.633 140.332 139.42 143.019C137.207 145.707 132.664 166.449 133.712 168.832C134.761 171.215 151.56 174.208 156.748 174.638C160.919 174.803 165.097 174.617 169.237 174.083C169.237 174.083 173.717 173.966 174.945 173.76C176.172 173.554 178.43 172.344 178.466 171.887C178.502 171.431 178.278 170.337 176.602 170.203C174.927 170.069 171.334 168.868 170.877 168.832C171.954 168.549 173.045 168.328 174.147 168.169C174.147 168.169 174.38 167.273 172.535 167.273C170.689 167.273 169.013 167.148 168.315 168.169C167.815 168.965 167.389 169.805 167.042 170.678C167.042 170.678 156.694 171.404 151.076 168.662C145.458 165.92 143.684 165.006 143.684 165.006L147.716 148.879" stroke="#263238" stroke-width="0.546746" stroke-linecap="round" stroke-linejoin="round"/>
<path d="M174.918 173.788C176.163 173.582 178.403 172.373 178.439 171.916C178.475 171.459 178.251 170.366 176.575 170.231C174.9 170.097 171.307 168.896 170.85 168.861C171.927 168.577 173.018 168.356 174.12 168.197C174.12 168.197 174.353 167.302 172.508 167.302C170.662 167.302 168.986 167.176 168.288 168.197C167.788 168.993 167.362 169.833 167.015 170.706C167.015 170.706 156.667 171.432 151.049 168.69C145.431 165.949 143.657 165.035 143.657 165.035L146.112 155.179C142.917 153.864 139.544 153.028 136.104 152.697C134.429 159.453 133.058 167.409 133.685 168.825C134.725 171.208 151.533 174.2 156.721 174.631C160.892 174.796 165.07 174.61 169.21 174.075C169.21 174.075 173.699 173.994 174.918 173.788Z" fill="white" stroke="#263238" stroke-width="0.546746" stroke-linecap="round" stroke-linejoin="round"/>
<path d="M99.2443 182.363C99.2443 182.363 95.7859 184.953 96.3145 186.664C96.8431 188.375 99.7281 184.872 100.445 183.842C101.162 182.811 100.597 181.252 99.2443 182.363Z" fill="white" stroke="#263238" stroke-width="0.546746" stroke-linecap="round" stroke-linejoin="round"/>
<path d="M99.9253 184.683C99.9253 184.683 96.4758 187.273 96.9955 188.984C97.5151 190.695 100.418 187.192 101.126 186.162C101.834 185.131 101.278 183.554 99.9253 184.683Z" fill="white" stroke="#263238" stroke-width="0.546746" stroke-linecap="round" stroke-linejoin="round"/>
<path d="M101.565 186.189C101.565 186.189 98.1155 188.778 98.6441 190.49C99.1727 192.201 102.058 188.698 102.774 187.668C103.491 186.637 102.927 185.06 101.565 186.189Z" fill="white" stroke="#263238" stroke-width="0.546746" stroke-linecap="round" stroke-linejoin="round"/>
<path d="M102.918 187.407C102.918 187.407 99.9343 189.325 100.436 190.74C100.938 192.156 103.402 189.477 104.02 188.653C104.638 187.828 104.136 186.502 102.918 187.407Z" fill="white" stroke="#263238" stroke-width="0.546746" stroke-linecap="round" stroke-linejoin="round"/>
</svg>
