<svg width="51" height="50" viewBox="0 0 51 50" fill="none" xmlns="http://www.w3.org/2000/svg">
<path d="M25.5001 4.16699C37.0063 4.16699 46.3334 13.4941 46.3334 25.0003C46.3334 36.5066 37.0063 45.8337 25.5001 45.8337C13.9938 45.8337 4.66675 36.5066 4.66675 25.0003H8.83342C8.83342 34.2045 16.2959 41.667 25.5001 41.667C34.7043 41.667 42.1668 34.2045 42.1668 25.0003C42.1668 15.7962 34.7043 8.33366 25.5001 8.33366C20.3667 8.33366 15.7751 10.6545 12.7188 14.3024L17.1667 18.7503H4.66675V6.25033L9.76467 11.3462C13.5834 6.95033 19.2167 4.16699 25.5001 4.16699ZM27.5834 14.5837V24.1357L34.3397 30.892L31.3918 33.8399L23.4167 25.8607V14.5837H27.5834Z" fill="#48D189"/>
</svg>
