<svg width="100" height="100" viewBox="0 0 100 100" fill="none" xmlns="http://www.w3.org/2000/svg">
<g clip-path="url(#clip0)">
<path d="M75 29.166C73.9333 29.166 72.8666 28.7577 72.0541 27.9452C70.425 26.316 70.425 23.6827 72.0541 22.0535L80.8916 13.216C82.5208 11.5868 85.1541 11.5868 86.7833 13.216C88.4125 14.8452 88.4125 17.4785 86.7833 19.1077L77.9458 27.9452C77.1333 28.7577 76.0666 29.166 75 29.166Z" fill="#FFC107"/>
<path d="M95.8333 54.1673H90.6249C88.3208 54.1673 86.4583 52.3007 86.4583 50.0007C86.4583 47.7007 88.3208 45.834 90.6249 45.834H95.8333C98.1374 45.834 99.9999 47.7007 99.9999 50.0007C99.9999 52.3007 98.1374 54.1673 95.8333 54.1673Z" fill="#FFC107"/>
<path d="M76.0416 81.2494H23.9583C22.2333 81.2494 20.8333 79.8494 20.8333 78.1244V58.3327C20.8333 42.2494 33.9208 29.166 49.9999 29.166C66.0791 29.166 79.1666 42.2494 79.1666 58.3327V78.1244C79.1666 79.8494 77.7666 81.2494 76.0416 81.2494Z" fill="#F44336"/>
<path d="M33.3334 62.5C31.0292 62.5 29.1667 60.6333 29.1667 58.3333C29.1667 46.8458 38.5126 37.5 50.0001 37.5C52.3042 37.5 54.1667 39.3667 54.1667 41.6667C54.1667 43.9667 52.3042 45.8333 50.0001 45.8333C43.1084 45.8333 37.5001 51.4417 37.5001 58.3333C37.5001 60.6333 35.6376 62.5 33.3334 62.5Z" fill="white"/>
<path d="M49.9999 20.8333C47.6958 20.8333 45.8333 18.9667 45.8333 16.6667V4.16667C45.8333 1.86667 47.6958 0 49.9999 0C52.3041 0 54.1666 1.86667 54.1666 4.16667V16.6667C54.1666 18.9667 52.3041 20.8333 49.9999 20.8333Z" fill="#FFC107"/>
<path d="M25.0001 29.166C23.9334 29.166 22.8668 28.7577 22.0543 27.9452L13.2167 19.1077C11.5876 17.4785 11.5876 14.8452 13.2167 13.216C14.8459 11.5868 17.4792 11.5868 19.1084 13.216L27.9459 22.0535C29.5751 23.6827 29.5751 26.316 27.9459 27.9452C27.1334 28.7577 26.0667 29.166 25.0001 29.166Z" fill="#FFC107"/>
<path d="M8.33333 54.1673H4.16667C1.8625 54.1673 0 52.3007 0 50.0007C0 47.7007 1.8625 45.834 4.16667 45.834H8.33333C10.6375 45.834 12.5 47.7007 12.5 50.0007C12.5 52.3007 10.6375 54.1673 8.33333 54.1673Z" fill="#FFC107"/>
<path d="M92.7083 100H7.29167C3.27083 100 0 96.7292 0 92.7083V82.2917C0 78.2708 3.27083 75 7.29167 75H92.7083C96.7292 75 100 78.2708 100 82.2917V92.7083C100 96.7292 96.7292 100 92.7083 100Z" fill="#607D8B"/>
<path d="M49.9999 29.166C33.9208 29.166 20.8333 42.2493 20.8333 58.3327V74.9993H49.9999V45.8327C43.1083 45.8327 37.4999 51.441 37.4999 58.3327C37.4999 60.6327 35.6374 62.4993 33.3333 62.4993C31.0291 62.4993 29.1666 60.6327 29.1666 58.3327C29.1666 46.8452 38.5124 37.4993 49.9999 37.4993V29.166Z" fill="#D43A2F"/>
<path d="M50.0001 37.5C38.5126 37.5 29.1667 46.8458 29.1667 58.3333C29.1667 60.6333 31.0292 62.5 33.3334 62.5C35.6376 62.5 37.5001 60.6333 37.5001 58.3333C37.5001 51.4417 43.1084 45.8333 50.0001 45.8333V37.5Z" fill="#DEDEDE"/>
<path d="M49.9999 0C47.6957 0 45.8333 1.86667 45.8333 4.16667V16.6667C45.8333 18.9667 47.6957 20.8333 49.9999 20.8333V0Z" fill="#DEA806"/>
<path d="M16.1626 11.9961C15.0959 11.9961 14.0292 12.4044 13.2167 13.2169C11.5876 14.8461 11.5876 17.4794 13.2167 19.1086L22.0543 27.9461C22.8668 28.7586 23.9334 29.1669 25.0001 29.1669C26.0667 29.1669 27.1334 28.7586 27.9459 27.9461C29.5751 26.3169 29.5751 23.6836 27.9459 22.0544L19.1084 13.2169C18.2959 12.4044 17.2292 11.9961 16.1626 11.9961Z" fill="#DEA806"/>
<path d="M8.33333 45.834H4.16667C1.8625 45.834 0 47.7007 0 50.0007C0 52.3007 1.8625 54.1673 4.16667 54.1673H8.33333C10.6375 54.1673 12.5 52.3007 12.5 50.0007C12.5 47.7007 10.6375 45.834 8.33333 45.834Z" fill="#DEA806"/>
<path d="M50 75H20.8333H7.29167C3.27083 75 0 78.2708 0 82.2917V92.7083C0 96.7292 3.27083 100 7.29167 100H50V75Z" fill="#546D79"/>
</g>
<defs>
<clipPath id="clip0">
<rect width="100" height="100" fill="white"/>
</clipPath>
</defs>
</svg>
