<svg width="50" height="51" viewBox="0 0 50 51" fill="none" xmlns="http://www.w3.org/2000/svg">
<path d="M4.16675 41.7334H45.8334V45.9001H4.16675V41.7334ZM8.33342 25.0667H12.5001V39.6501H8.33342V25.0667ZM18.7501 25.0667H22.9167V39.6501H18.7501V25.0667ZM27.0834 25.0667H31.2501V39.6501H27.0834V25.0667ZM37.5001 25.0667H41.6668V39.6501H37.5001V25.0667ZM4.16675 14.6501L25.0001 4.2334L45.8334 14.6501V22.9834H4.16675V14.6501ZM25.0001 16.7334C25.5526 16.7334 26.0825 16.5139 26.4732 16.1232C26.8639 15.7325 27.0834 15.2026 27.0834 14.6501C27.0834 14.0975 26.8639 13.5676 26.4732 13.1769C26.0825 12.7862 25.5526 12.5667 25.0001 12.5667C24.4475 12.5667 23.9176 12.7862 23.5269 13.1769C23.1362 13.5676 22.9167 14.0975 22.9167 14.6501C22.9167 15.2026 23.1362 15.7325 23.5269 16.1232C23.9176 16.5139 24.4475 16.7334 25.0001 16.7334Z" fill="#48D189"/>
</svg>
