<svg width="42" height="42" viewBox="0 0 42 42" fill="none" xmlns="http://www.w3.org/2000/svg">
<circle cx="21" cy="21" r="21" fill="#48D189" fill-opacity="0.08"/>
<path d="M12.897 26.86L16.807 22.95L19.636 25.778L24.207 21.208L26 23V18H21L22.793 19.793L19.636 22.95L16.808 20.121L11.862 25.067C11.2919 23.787 10.9982 22.4012 11 21C11 15.477 15.477 11 21 11C26.523 11 31 15.477 31 21C31 26.523 26.523 31 21 31C19.418 31.001 17.8584 30.6262 16.4496 29.9065C15.0408 29.1867 13.8232 28.1425 12.897 26.86Z" fill="#48D189"/>
</svg>
