<svg width="51" height="50" viewBox="0 0 51 50" fill="none" xmlns="http://www.w3.org/2000/svg">
<path d="M30.3923 13.6317L26.2553 17.7686C32.4273 18.5458 34.9651 26.1201 30.6218 30.4633L18.0658 43.0194C15.1476 45.9376 10.3984 45.9376 7.48024 43.0194C4.55504 40.0922 4.55416 35.36 7.48024 32.4339L10.7839 29.1292C10.1773 27.1363 9.98483 24.6725 10.377 22.2737L4.20065 28.4501C-0.731482 33.3822 -0.73529 41.3669 4.19967 46.2999C9.13024 51.2325 17.1175 51.2339 22.0495 46.2999C37.4912 30.8603 33.1656 35.185 34.4081 33.9375C40.508 27.6037 38.3857 17.1356 30.3923 13.6317Z" fill="#48D189"/>
<path d="M46.809 21.5404C51.7307 16.6197 51.7297 8.61223 46.809 3.69055C41.888 -1.22849 33.882 -1.23123 28.9602 3.69055C16.3217 16.329 16.6017 16.0538 16.6017 16.0538C10.4264 22.4674 12.7066 32.8888 20.6156 36.3587H20.6165L24.4028 32.5725H24.4018C18.2285 31.7909 15.7049 24.2329 20.019 19.8951C20.019 19.8951 27.1782 12.7363 32.5913 7.3217C35.512 4.401 40.2458 4.39075 43.1769 7.3217C46.096 10.2408 46.096 14.9891 43.1769 17.9081L40.2258 20.8592C40.9251 23.4204 40.9932 25.5194 40.6347 27.7147L46.809 21.5404Z" fill="#48D189"/>
<path d="M2.09586 18.4932C2.14107 18.4932 2.18697 18.4912 2.23287 18.4869L5.09264 18.2216C5.8982 18.1469 6.49059 17.4333 6.41588 16.6277C6.34117 15.8222 5.62769 15.2292 4.82193 15.3045L1.96217 15.5698C1.1566 15.6445 0.564218 16.3581 0.638925 17.1637C0.709531 17.9232 1.34791 18.4932 2.09586 18.4932Z" fill="#48D189"/>
<path d="M17.1287 5.91461C17.1747 5.91891 17.2204 5.92096 17.2658 5.92096C18.0137 5.92096 18.6522 5.35084 18.7226 4.59137L18.9879 1.7317C19.0626 0.926137 18.4702 0.212465 17.6647 0.137855C16.8589 0.0629531 16.1455 0.655629 16.0707 1.4611L15.8054 4.32077C15.7308 5.12633 16.3232 5.84 17.1287 5.91461Z" fill="#48D189"/>
<path d="M7.73105 9.03883C8.30312 9.6109 9.23056 9.6109 9.80263 9.03883C10.3747 8.46686 10.3747 7.53932 9.80263 6.96725L7.96816 5.13278C7.39619 4.5608 6.46865 4.5608 5.89658 5.13278C5.32451 5.70475 5.32451 6.63229 5.89658 7.20436L7.73105 9.03883Z" fill="#48D189"/>
<path d="M48.7671 31.5131L45.9075 31.7784C45.1019 31.8531 44.5095 32.5667 44.5842 33.3723C44.659 34.179 45.3742 34.7705 46.1781 34.6955L49.0378 34.4302C49.8433 34.3555 50.4357 33.6419 50.361 32.8363C50.2863 32.0307 49.5715 31.4378 48.7671 31.5131Z" fill="#48D189"/>
<path d="M33.8712 44.0854C33.0646 44.0102 32.352 44.6032 32.2773 45.4086L32.012 48.2683C31.9325 49.1248 32.6055 49.8686 33.4723 49.8686C34.2202 49.8686 34.8586 49.2985 34.9291 48.539L35.1944 45.6794C35.2691 44.8737 34.6767 44.16 33.8712 44.0854Z" fill="#48D189"/>
<path d="M43.2692 40.9611C42.6972 40.3891 41.7697 40.3891 41.1976 40.9611C40.6255 41.5331 40.6255 42.4606 41.1976 43.0327L43.0321 44.8671C43.6042 45.4392 44.5316 45.4392 45.1037 44.8671C45.6758 44.2952 45.6758 43.3676 45.1037 42.7956L43.2692 40.9611Z" fill="#48D189"/>
</svg>
