<svg width="110" height="17" viewBox="0 0 110 17" fill="none" xmlns="http://www.w3.org/2000/svg">
<path fill-rule="evenodd" clip-rule="evenodd" d="M31.3694 12.3164L26.3857 0.846974H28.7518L28.7587 0.847618C29.2552 0.900792 29.6901 1.20483 29.9122 1.65039L29.9165 1.65982L32.8443 8.91537L35.4048 1.55454L35.4119 1.54254C35.6446 1.15938 36.0401 0.90165 36.4863 0.847618L36.4943 0.846759H38.7915L34.0236 13.2454C33.3235 14.7129 32.1434 16.4831 30.3732 16.6518L30.2756 16.6825L29.7896 15.8956C28.9398 13.9543 31.0475 14.2071 31.3689 12.3164H31.3694ZM81.6386 10.4872L76.8145 13.2725C76.649 13.3366 76.4689 13.3717 76.2807 13.3717C76.0723 13.3717 75.8737 13.3286 75.694 13.251L70.356 10.169L70.794 10.4218C70.5728 10.2132 70.416 9.93704 70.356 9.62635V4.05718C70.3764 3.83698 70.445 3.63071 70.5509 3.4491C70.6767 3.23383 70.8553 3.05308 71.0691 2.92464L75.6758 0.265057C76.0375 0.102746 76.4599 0.0939577 76.8281 0.240617L81.5023 2.93944C81.7053 3.06659 81.8751 3.24133 81.9965 3.44824C82.0998 3.6247 82.1676 3.82432 82.1901 4.03745V9.56868C82.1597 9.74685 82.0975 9.9141 82.0096 10.0644C81.9137 10.228 81.7877 10.3714 81.6386 10.487V10.4872ZM73.3142 7.9312C73.3661 8.28262 73.5945 8.58988 73.9993 8.85275L74.2767 9.01656L75.6689 9.8204C75.8546 9.90488 76.0607 9.95205 76.2777 9.95205C76.4792 9.95205 76.6715 9.91132 76.8467 9.83777L78.6375 8.80387C78.7998 8.68186 78.9364 8.52705 79.0378 8.3493C79.1484 8.15547 79.2173 7.93377 79.2312 7.69749V5.72231C79.2074 5.51669 79.1422 5.32415 79.044 5.15283C78.9495 4.9873 78.8242 4.84193 78.6763 4.72443L76.8716 3.68259C76.6906 3.60305 76.4903 3.55888 76.2804 3.55888C76.033 3.55888 75.7999 3.61999 75.5952 3.72805L73.9933 4.65303C73.7943 4.77953 73.6275 4.95235 73.5074 5.15647C73.4084 5.32479 73.3413 5.51455 73.3142 5.71717V7.2172C73.3142 7.4552 73.3142 7.69341 73.3142 7.93163V7.9312ZM11.3084 10.4617L6.47337 13.2532C6.30741 13.3173 6.12687 13.3524 5.93819 13.3524C5.72935 13.3524 5.53037 13.3093 5.35026 13.2315L2.96534 11.8545V15.8763C2.4441 16.1773 2.06759 16.5322 1.47753 16.5322C1.0026 16.5322 0.0696844 15.9413 0 15.1865V10.1427C2.09075 8.93551 3.13623 8.33195 3.13623 8.33195C3.20699 8.45931 3.32663 8.59439 3.49559 8.73676L5.32539 9.79317C5.51151 9.87787 5.7257 9.92504 5.9354 9.92504C6.14531 9.92504 6.33014 9.8843 6.50596 9.81054L8.3006 8.77428C8.46334 8.65206 8.60035 8.49683 8.70198 8.31865C8.81283 8.12418 8.88166 7.90226 8.89581 7.66555V5.68586C8.87201 5.47981 8.8064 5.28684 8.70841 5.11509C8.61343 4.94914 8.488 4.80355 8.33962 4.68562L6.53104 3.64143C6.34943 3.56145 6.14917 3.51728 5.93862 3.51728C5.69076 3.51728 5.45705 3.57839 5.25164 3.68689L3.64611 4.61401C3.4467 4.74073 3.27946 4.91398 3.15917 5.11853C3.0599 5.28727 2.99257 5.47745 2.96577 5.6805V6.71891L0.000429246 8.43079V4.01708C0.0207985 3.79645 0.0896278 3.58976 0.195977 3.40772C0.322052 3.19202 0.501087 3.01084 0.715286 2.88219L5.33226 0.2166C5.69483 0.0540742 6.11829 0.0450712 6.4873 0.192159L11.1722 2.89698C11.3757 3.02435 11.546 3.19974 11.6675 3.40708C11.7711 3.58397 11.8391 3.78402 11.8616 3.99757V9.54145C11.8311 9.71984 11.7687 9.88772 11.6804 10.0382C11.5846 10.2023 11.4581 10.3459 11.309 10.4619L11.3084 10.4617ZM22.3365 1.46363V0.847188H23.8696C24.5613 0.860696 25.1606 1.33026 25.3392 1.9958L25.3435 2.01253V3.90087V9.43209V12.6965H23.444L23.4283 12.6927C22.9365 12.5698 22.5417 12.2139 22.361 11.754L19.9681 13.1357C19.8024 13.1998 19.6223 13.2347 19.434 13.2347C19.2256 13.2347 19.0273 13.1918 18.8474 13.114L13.9472 10.285C13.7259 10.0762 13.569 9.80003 13.5091 9.48956V3.92038C13.5295 3.70018 13.5981 3.49391 13.7043 3.3123C13.8301 3.09703 14.0087 2.91628 14.2225 2.78785L18.8292 0.128259C19.1909 -0.0338378 19.6133 -0.0426265 19.9816 0.103818L22.3368 1.46363H22.3365ZM16.4678 7.7942C16.5197 8.14562 16.7481 8.45287 17.1529 8.71574L17.4301 8.87977L18.8225 9.6836C19.008 9.76808 19.214 9.81525 19.4312 9.81525C19.633 9.81525 19.8251 9.77473 20.0005 9.70097L21.7911 8.66707C21.9534 8.54507 22.0902 8.39026 22.1916 8.21251C22.302 8.01847 22.3706 7.79698 22.385 7.5607V5.5853C22.3612 5.37989 22.2958 5.18714 22.198 5.01582C22.1033 4.85029 21.978 4.70492 21.8299 4.58742L20.0252 3.54559C19.8442 3.46582 19.6441 3.42187 19.434 3.42187C19.1868 3.42187 18.9535 3.48297 18.7488 3.59104L17.1467 4.51602C16.9477 4.64253 16.7809 4.81534 16.6608 5.01946C16.5617 5.18778 16.4946 5.37753 16.4678 5.58015V7.0802C16.4678 7.31841 16.4678 7.55662 16.4678 7.7944V7.7942ZM41.6852 7.37737C41.7399 8.23117 41.9861 9.08432 42.6645 9.65509C43.3635 10.2434 44.2567 10.4336 45.1508 10.4336C46.1225 10.4336 47.0402 10.1759 47.8985 9.72563L47.9129 9.71813L47.9287 9.71426C48.025 9.69089 48.1236 9.6791 48.2227 9.6791C48.6963 9.6791 49.1282 9.94755 49.3385 10.3719L49.3413 10.3779L49.7234 11.4047L49.6395 11.4628C48.9485 11.9418 48.1983 12.3372 47.3957 12.5936C46.5863 12.8524 45.7368 12.9545 44.889 12.9545C43.1308 12.9545 41.4567 12.5085 40.1826 11.2475C38.9562 10.0337 38.4553 8.49232 38.4553 6.78302C38.4553 5.97296 38.5915 5.18071 38.8721 4.42082C39.1416 3.69096 39.5293 3.02328 40.0411 2.43728C40.5709 1.83071 41.2296 1.38387 41.9644 1.06203C42.7764 0.706748 43.6424 0.553657 44.5262 0.553657C47.7563 0.553657 49.846 2.84553 49.846 6.09904C49.8177 6.80982 49.2328 7.37694 48.5154 7.37694H41.685L41.6852 7.37737ZM41.7495 5.25317H47.1837C47.061 4.63009 46.8134 4.03059 46.3378 3.5919C45.8734 3.1635 45.3138 2.97524 44.6845 2.97524C43.9681 2.97524 43.3041 3.15642 42.7487 3.61934C42.2316 4.05031 41.9209 4.61551 41.7493 5.25317H41.7495ZM105.677 13.0741C104.712 13.0741 103.751 12.9465 102.834 12.6397C102.114 12.3985 101.361 12.0681 100.765 11.5904L100.712 11.5477L101.021 10.6581C101.209 10.2111 101.644 9.92182 102.128 9.92182C102.257 9.92182 102.385 9.94261 102.508 9.98335L102.513 9.98529L102.518 9.98764C102.792 10.115 103.072 10.2271 103.359 10.3208C104.027 10.5391 104.721 10.6718 105.426 10.6718C105.867 10.6718 106.419 10.6206 106.797 10.3706C107.127 10.1517 107.233 9.80089 107.233 9.41773V9.2164C107.233 8.99448 107.148 8.81694 106.983 8.669C106.722 8.43507 106.045 8.21165 105.714 8.10487L104.058 7.57078C103.702 7.45607 103.341 7.33427 102.997 7.18847C102.697 7.06132 102.407 6.90781 102.129 6.73671C101.862 6.57225 101.612 6.36813 101.422 6.11683C101.236 5.87111 101.104 5.58745 101.008 5.29542C100.892 4.94013 100.853 4.55462 100.853 4.18196C100.853 3.62878 100.953 3.08095 101.208 2.5863C101.442 2.13131 101.769 1.76531 102.202 1.49236C102.63 1.22241 103.097 1.02944 103.588 0.907869C104.132 0.773003 104.696 0.719184 105.256 0.719184C106.014 0.719184 106.767 0.816958 107.501 1.00457C108.201 1.18382 108.878 1.45527 109.481 1.85751L109.545 1.89996L109.13 3.0029L109.127 3.00934C108.921 3.3807 108.528 3.60905 108.102 3.60905C107.991 3.60905 107.881 3.59361 107.771 3.56145C107.543 3.47998 107.315 3.40943 107.084 3.34639C106.561 3.20295 106.006 3.09832 105.461 3.09832C105.058 3.09832 104.472 3.12769 104.111 3.32624C103.837 3.47676 103.731 3.71883 103.731 4.0233C103.731 4.19226 103.755 4.39102 103.851 4.5351C103.958 4.69763 104.213 4.83893 104.382 4.92384C104.805 5.13482 105.304 5.3027 105.751 5.45279L107.26 5.95967C107.764 6.12863 108.293 6.34604 108.738 6.64022C109.143 6.90781 109.441 7.27896 109.657 7.71079C109.919 8.2346 110 8.84997 110 9.42953C110 9.92075 109.924 10.4066 109.737 10.8629C109.577 11.2559 109.353 11.6187 109.045 11.9137C108.752 12.1946 108.416 12.418 108.048 12.5893C107.676 12.7628 107.287 12.8936 106.883 12.9682C106.486 13.0418 106.082 13.0743 105.678 13.0743L105.677 13.0741ZM91.4399 2.14396C91.8222 1.66904 92.3006 1.30239 92.8625 1.03695C93.4891 0.740841 94.161 0.554087 94.8575 0.554087C95.4653 0.554087 96.0863 0.625272 96.6622 0.827464C97.1939 1.01422 97.6547 1.31354 98.0501 1.71492C98.5063 2.17805 98.7872 2.78742 98.9693 3.40429C99.2094 4.21799 99.2789 5.11316 99.2789 5.95838V12.6965H97.7484C96.9032 12.6965 96.2181 12.0113 96.2181 11.1663V5.76584C96.2181 5.13311 96.1583 4.19719 95.7625 3.67059C95.4136 3.20617 94.8302 3.08717 94.2794 3.08717C93.9917 3.08717 93.7028 3.15943 93.4348 3.25977C93.1096 3.38177 92.8034 3.54452 92.5203 3.74542C92.2195 3.95855 91.9826 4.23321 91.7986 4.55183C91.6057 4.8861 91.5115 5.24524 91.5115 5.63119V12.697H89.9793C89.1333 12.697 88.4469 12.0113 88.4469 11.1648V0.847403H89.9506C90.7109 0.847403 91.3394 1.41174 91.4401 2.14418L91.4399 2.14396ZM83.8383 11.2973V0.847188H85.4278C86.1608 0.901864 86.7419 1.48142 86.7985 2.2145V12.6965L85.2149 12.6963C84.4687 12.6427 83.8803 12.0452 83.8381 11.2973H83.8383ZM69.2923 11.5717L69.2063 11.6322C68.598 12.0595 67.9376 12.4127 67.2283 12.6406C66.5203 12.8681 65.7752 12.9549 65.0334 12.9549C64.1277 12.9549 63.2359 12.8014 62.3993 12.4474C61.6519 12.1309 60.9786 11.6834 60.4402 11.0715C59.9252 10.4868 59.5345 9.82276 59.2631 9.09204C58.9848 8.34288 58.8465 7.56005 58.8465 6.7605C58.8465 5.65992 59.0632 4.59407 59.5705 3.61269C60.0631 2.65984 60.7824 1.91818 61.7102 1.37786C62.7169 0.791655 63.8414 0.554301 64.9986 0.554301C66.6057 0.554301 68.1636 0.953755 69.2957 2.15276L69.3615 2.22265L68.8249 3.18687C68.6147 3.50528 68.1351 3.71519 67.8435 3.71519C67.5519 3.71519 67.506 3.67767 67.358 3.61055H67.3576C66.7354 3.25591 66.0482 3.07559 65.2915 3.07559C64.353 3.07559 63.484 3.33482 62.8629 4.06618C62.2181 4.82478 62.0114 5.79822 62.0114 6.7723C62.0114 7.75388 62.2505 8.69087 62.9182 9.43274C63.5691 10.1555 64.4242 10.434 65.3842 10.434C65.5302 10.434 65.6766 10.4304 65.8218 10.4156C65.9534 10.4021 66.0851 10.3847 66.2152 10.3594C66.3377 10.3356 66.4588 10.3045 66.5778 10.2668C66.6895 10.2312 66.8004 10.1926 66.9086 10.1568C67.0047 10.1191 67.1014 10.0743 67.1945 10.0226C67.25 9.99171 67.307 9.96234 67.3636 9.93146C67.4914 9.88622 67.464 9.86178 67.7719 9.86178C68.08 9.86178 68.6553 10.13 68.8592 10.5228L69.2925 11.5722L69.2923 11.5717ZM54.493 2.15125C54.8369 1.73165 55.231 1.33262 55.6774 1.03501C56.1652 0.709964 56.7068 0.554087 57.292 0.554087C57.6889 0.554087 58.0947 0.628062 58.4777 0.727978L58.5757 0.753492V3.4877L58.4033 3.4313C57.9682 3.28829 57.5049 3.1873 57.0452 3.1873C56.3479 3.1873 55.7323 3.4 55.2426 3.90323C54.6991 4.46156 54.5438 5.25125 54.5438 6.00491V12.6965H52.9287C52.2893 12.6841 51.7241 12.2817 51.5028 11.6847L51.4947 11.6626V11.6391C51.4947 8.08537 51.4947 4.53189 51.4947 0.978197V0.847188H52.9872C53.7486 0.861983 54.3757 1.42246 54.493 2.15104V2.15125Z" fill="#48D189"/>
</svg>
