<svg width="25" height="30" viewBox="0 0 25 30" fill="none" xmlns="http://www.w3.org/2000/svg">
<path fill-rule="evenodd" clip-rule="evenodd" d="M16.5853 15L10.9369 21.9619L9.24014 19.8705L13.1917 15L9.24014 10.1294L10.9369 8.03799L16.5853 15ZM2.88855 15C2.88855 21.5345 7.18575 26.8325 12.4885 26.8325C17.7901 26.8325 22.0885 21.5345 22.0885 15C22.0885 8.46545 17.7901 3.16743 12.4885 3.16743C7.18575 3.16743 2.88855 8.46545 2.88855 15Z" fill="#C0CCDA"/>
<mask id="mask0" mask-type="alpha" maskUnits="userSpaceOnUse" x="2" y="3" width="21" height="24">
<path fill-rule="evenodd" clip-rule="evenodd" d="M16.5853 15L10.9369 21.9619L9.24014 19.8705L13.1917 15L9.24014 10.1294L10.9369 8.03799L16.5853 15ZM2.88855 15C2.88855 21.5345 7.18575 26.8325 12.4885 26.8325C17.7901 26.8325 22.0885 21.5345 22.0885 15C22.0885 8.46545 17.7901 3.16743 12.4885 3.16743C7.18575 3.16743 2.88855 8.46545 2.88855 15Z" fill="white"/>
</mask>
<g mask="url(#mask0)">
</g>
</svg>
