<svg width="50" height="51" viewBox="0 0 50 51" fill="none" xmlns="http://www.w3.org/2000/svg">
<path d="M30.3344 9.8748H40.625V20.8123C40.625 21.6748 41.325 22.3748 42.1875 22.3748C43.05 22.3748 43.75 21.6748 43.75 20.8123V8.3123C43.75 7.4498 43.05 6.7498 42.1875 6.7498H30.3344L30.7922 6.29199C31.4024 5.68184 31.4024 4.69277 30.7922 4.08262C30.1829 3.47246 29.1922 3.47246 28.5829 4.08262L25.4579 7.20762C24.8477 7.81777 24.8477 8.80684 25.4579 9.41699L28.5829 12.542C28.8875 12.8475 29.2875 12.9998 29.6875 12.9998C30.0875 12.9998 30.4876 12.8475 30.7922 12.542C31.4024 11.9318 31.4024 10.9428 30.7922 10.3326L30.3344 9.8748Z" fill="#9DA8B6"/>
<path d="M21.4172 38.4578C20.8078 37.8477 19.8172 37.8477 19.2078 38.4578C18.5977 39.068 18.5977 40.057 19.2078 40.6672L19.6656 41.125H9.375V30.1875C9.375 29.325 8.675 28.625 7.8125 28.625C6.95 28.625 6.25 29.325 6.25 30.1875V42.6875C6.25 43.55 6.95 44.25 7.8125 44.25H19.6656L19.2078 44.7078C18.5977 45.318 18.5977 46.307 19.2078 46.9172C19.5125 47.2227 19.9125 47.375 20.3125 47.375C20.7125 47.375 21.1125 47.2227 21.4172 46.9172L24.5422 43.7922C25.1523 43.182 25.1523 42.193 24.5422 41.5828L21.4172 38.4578Z" fill="#9DA8B6"/>
<path d="M0 8.3125V23.9375C0 24.8 0.7 25.5 1.5625 25.5H3.125V6.75H1.5625C0.7 6.75 0 7.45 0 8.3125Z" fill="#9DA8B6"/>
<path d="M12.5 20.8125C12.5 19.95 13.2 19.25 14.0625 19.25C14.925 19.25 15.625 19.95 15.625 20.8125V25.5H20.3125C21.175 25.5 21.875 24.8 21.875 23.9375V2.0625C21.875 1.2 21.175 0.5 20.3125 0.5H7.8125C6.95 0.5 6.25 1.2 6.25 2.0625V25.5H12.5V20.8125ZM14.0625 6.75C14.925 6.75 15.625 7.45 15.625 8.3125C15.625 9.175 14.925 9.875 14.0625 9.875C13.2 9.875 12.5 9.175 12.5 8.3125C12.5 7.45 13.2 6.75 14.0625 6.75ZM14.0625 13C14.925 13 15.625 13.7 15.625 14.5625C15.625 15.425 14.925 16.125 14.0625 16.125C13.2 16.125 12.5 15.425 12.5 14.5625C12.5 13.7 13.2 13 14.0625 13Z" fill="#9DA8B6"/>
<path d="M28.125 33.3125V48.9375C28.125 49.8 28.825 50.5 29.6875 50.5H31.25V31.75H29.6875C28.825 31.75 28.125 32.45 28.125 33.3125Z" fill="#9DA8B6"/>
<path d="M48.4375 25.5H35.9375C35.075 25.5 34.375 26.2 34.375 27.0625V50.5H40.625V45.8125C40.625 44.95 41.325 44.25 42.1875 44.25C43.05 44.25 43.75 44.95 43.75 45.8125V50.5H48.4375C49.3 50.5 50 49.8 50 48.9375V27.0625C50 26.2 49.3 25.5 48.4375 25.5ZM42.1875 41.125C41.325 41.125 40.625 40.425 40.625 39.5625C40.625 38.7 41.325 38 42.1875 38C43.05 38 43.75 38.7 43.75 39.5625C43.75 40.425 43.05 41.125 42.1875 41.125ZM42.1875 34.875C41.325 34.875 40.625 34.175 40.625 33.3125C40.625 32.45 41.325 31.75 42.1875 31.75C43.05 31.75 43.75 32.45 43.75 33.3125C43.75 34.175 43.05 34.875 42.1875 34.875Z" fill="#9DA8B6"/>
</svg>
