<svg width="19" height="17" viewBox="0 0 19 17" fill="none" xmlns="http://www.w3.org/2000/svg">
<path d="M7.85481 7.70059V4.04609H2.89819V0.842773H16.7489V4.09121H11.7923V7.70059H7.85481Z" fill="#00A478"/>
<path fill-rule="evenodd" clip-rule="evenodd" d="M0.767334 8.10625C0.767334 6.88809 4.75116 5.89551 9.70778 5.89551C14.6644 5.89551 18.6482 6.88809 18.6482 8.10625C18.6482 9.32441 14.6644 10.317 9.70778 10.317C4.75116 10.317 0.767334 9.32441 0.767334 8.10625ZM17.907 8.10626C17.5827 7.65509 14.896 6.25645 9.70772 6.25645C4.51949 6.25645 1.83272 7.60997 1.50846 8.10626C1.83272 8.55743 4.51949 9.23419 9.70772 9.23419C14.9423 9.23419 17.5827 8.55743 17.907 8.10626Z" fill="#00A478"/>
<path d="M11.7921 8.82871V6.30215C11.1435 6.25703 10.4487 6.21191 9.75382 6.21191C9.10529 6.21191 8.50308 6.21191 7.90088 6.25703V8.78359C8.45676 8.78359 9.10529 8.82871 9.75382 8.82871C10.4487 8.87383 11.1435 8.87383 11.7921 8.82871Z" fill="#00A478"/>
<path d="M9.70768 10.3178C9.05915 10.3178 8.45694 10.3178 7.85474 10.2727V16.9951H11.7459V10.2275C11.0974 10.2727 10.4025 10.3178 9.70768 10.3178Z" fill="#00A478"/>
</svg>
