<svg width="25" height="20" viewBox="0 0 25 20" fill="none" xmlns="http://www.w3.org/2000/svg">
<path d="M6.7133 19.9813C5.20818 19.8764 3.77806 19.3426 2.62713 18.4561C1.4762 17.5696 0.663328 16.3758 0.304573 15.0451C-0.0541829 13.7144 0.0595257 12.3148 0.629462 11.0462C1.1994 9.77766 2.19642 8.70494 3.47816 7.98125C3.75089 6.05134 4.78919 4.27776 6.39874 2.99241C8.00828 1.70706 10.0788 0.998047 12.2227 0.998047C14.3667 0.998047 16.4372 1.70706 18.0467 2.99241C19.6563 4.27776 20.6946 6.05134 20.9673 7.98125C22.2491 8.70494 23.2461 9.77766 23.816 11.0462C24.386 12.3148 24.4997 13.7144 24.1409 15.0451C23.7821 16.3758 22.9693 17.5696 21.8183 18.4561C20.6674 19.3426 19.2373 19.8764 17.7322 19.9813V20.0003H6.7133V19.9813ZM13.3246 12.0003H16.6303L12.2227 7.00025L7.81519 12.0003H11.1209V16.0003H13.3246V12.0003Z" fill="#C0CCDA"/>
</svg>
