<svg width="50" height="51" viewBox="0 0 50 51" fill="none" xmlns="http://www.w3.org/2000/svg">
<g clip-path="url(#clip0)">
<path d="M25 50.0664C38.8071 50.0664 50 38.8735 50 25.0664C50 11.2593 38.8071 0.0664062 25 0.0664062C11.1929 0.0664062 0 11.2593 0 25.0664C0 38.8735 11.1929 50.0664 25 50.0664Z" fill="#787676" fill-opacity="0.1"/>
<path d="M32.3242 16.2773C32.3242 12.2388 29.0386 8.95312 25 8.95312C20.9614 8.95312 17.6758 12.2388 17.6758 16.2773C17.6758 20.3159 20.9614 23.6016 25 23.6016C29.0386 23.6016 32.3242 20.3159 32.3242 16.2773ZM25 23.6016C17.7306 23.6016 11.8164 29.5157 11.8164 36.7852V38.158C11.8164 38.5744 11.9936 38.9711 12.3037 39.2489C15.8719 42.4462 20.3809 44.207 25 44.207C29.6192 44.207 34.1282 42.4462 37.6963 39.2489C38.0064 38.9711 38.1836 38.5743 38.1836 38.158V36.7852C38.1836 29.5157 32.2694 23.6016 25 23.6016Z" fill="#787676"/>
</g>
<defs>
<clipPath id="clip0">
<rect width="50" height="50" fill="white" transform="translate(0 0.0664062)"/>
</clipPath>
</defs>
</svg>
