<svg width="20" height="21" viewBox="0 0 20 21" fill="none" xmlns="http://www.w3.org/2000/svg">
<path d="M19.4426 8.36695L19.0206 8.07815C18.554 7.76714 18.3541 7.16733 18.5096 6.63416L18.6429 6.14543C18.865 5.39011 18.3541 4.61257 17.5766 4.47928L17.0656 4.39042C16.5102 4.30156 16.0659 3.87947 15.9771 3.32409L15.8882 2.81313C15.7549 2.0356 14.9774 1.54686 14.2221 1.76902L13.7333 1.92452C13.2002 2.08003 12.6003 1.88009 12.2893 1.43579L11.9783 0.991482C11.5118 0.347239 10.601 0.258378 10.0234 0.791545L9.64571 1.14699C9.22362 1.52465 8.62381 1.61351 8.11286 1.32471L7.66855 1.08034C6.97988 0.702684 6.11348 1.0137 5.80247 1.7468L5.60253 2.23554C5.40259 2.7687 4.86943 3.10193 4.31405 3.0575L3.8031 3.03529C3.00335 2.99086 2.3591 3.65732 2.42575 4.43485L2.47018 4.9458C2.51461 5.50118 2.18138 6.03435 1.67043 6.2565L1.20391 6.45644C0.470805 6.76745 0.182006 7.63385 0.559666 8.32252L0.826249 8.76683C1.11505 9.25556 1.0484 9.87759 0.670742 10.2997L0.337513 10.6773C-0.195654 11.2772 -0.0845773 12.188 0.581881 12.6323L1.00397 12.9211C1.47049 13.2321 1.67043 13.8319 1.51492 14.3651L1.31498 14.876C1.09283 15.6313 1.60378 16.4089 2.38132 16.5422L2.89227 16.631C3.44765 16.7199 3.89196 17.142 3.98082 17.6974L4.06968 18.2083C4.20297 18.9859 4.9805 19.4746 5.73582 19.2524L6.22456 19.0969C6.75773 18.9414 7.35754 19.1414 7.66855 19.5857L7.97957 20.0078C8.44609 20.652 9.35691 20.7409 9.93451 20.2077L10.3122 19.8522C10.7343 19.4746 11.3341 19.3857 11.845 19.6745L12.2893 19.9189C12.978 20.2966 13.8444 19.9855 14.1554 19.2524L14.3553 18.7637C14.5553 18.2305 15.0885 17.8973 15.6438 17.9417L16.1548 17.964C16.9545 18.0084 17.5988 17.3419 17.5321 16.5644L17.5099 16.0534C17.4655 15.4981 17.7987 14.9649 18.3097 14.7427L18.7762 14.5428C19.5093 14.2318 19.7981 13.3654 19.4204 12.6767L19.1538 12.2324C18.8651 11.7437 18.9317 11.1216 19.3094 10.6996L19.6426 10.3219C20.198 9.7443 20.0869 8.81126 19.4426 8.36695ZM10.5788 12.5656L8.7571 14.3651L6.95766 12.5434L5.22487 10.7884L7.04653 8.98898L8.77932 10.744L12.9336 6.61195L14.733 8.4336L10.5788 12.5656Z" fill="#48D189"/>
</svg>
